<?xml version="1.0" standalone="no"?>
<!DOCTYPE svg PUBLIC "-//W3C//DTD SVG 20010904//EN"
 "http://www.w3.org/TR/2001/REC-SVG-20010904/DTD/svg10.dtd">
<svg version="1.0" xmlns="http://www.w3.org/2000/svg"
 width="2305.000000pt" height="1543.000000pt" viewBox="0 0 2305.000000 1543.000000"
 preserveAspectRatio="xMidYMid meet">

<g transform="translate(0.000000,1543.000000) scale(0.100000,-0.100000)"
fill="#000000" stroke="none">
<path d="M11290 15399 c-85 -5 -238 -12 -340 -18 -102 -5 -205 -14 -230 -20
-25 -5 -77 -10 -116 -11 -39 0 -93 -7 -120 -15 -27 -8 -71 -15 -99 -15 -27 0
-68 -5 -90 -11 -22 -6 -72 -15 -111 -19 -40 -5 -81 -13 -92 -19 -12 -6 -39
-11 -62 -11 -22 0 -57 -7 -77 -15 -19 -8 -48 -15 -64 -15 -15 0 -40 -5 -56
-11 -15 -6 -57 -17 -93 -25 -83 -17 -171 -39 -190 -47 -8 -4 -35 -11 -60 -16
-43 -9 -58 -13 -140 -41 -19 -7 -51 -15 -70 -19 -19 -4 -45 -13 -57 -19 -12
-7 -35 -12 -50 -12 -16 0 -34 -5 -40 -11 -6 -6 -26 -14 -44 -19 -42 -10 -95
-28 -134 -46 -16 -7 -42 -16 -58 -20 -15 -3 -30 -10 -33 -15 -3 -5 -13 -9 -22
-9 -9 -1 -35 -9 -57 -20 -22 -11 -47 -19 -56 -20 -8 0 -19 -4 -25 -8 -5 -4
-36 -18 -69 -31 -33 -12 -72 -29 -87 -37 -14 -8 -33 -14 -41 -14 -8 0 -20 -7
-27 -15 -7 -8 -20 -15 -28 -15 -27 0 -368 -168 -567 -280 -11 -6 -33 -19 -50
-28 -16 -9 -43 -26 -60 -38 -16 -11 -41 -26 -55 -32 -28 -14 -45 -24 -107 -65
-24 -15 -45 -27 -47 -27 -6 0 -114 -74 -146 -99 -14 -11 -29 -21 -34 -21 -5 0
-18 -7 -28 -17 -10 -9 -27 -21 -37 -27 -45 -25 -269 -183 -289 -203 -8 -8 -27
-22 -41 -31 -33 -21 -213 -156 -232 -174 -8 -7 -26 -21 -40 -30 -14 -9 -47
-36 -75 -61 -27 -24 -71 -62 -99 -82 -27 -21 -75 -62 -105 -90 -30 -29 -89
-81 -130 -115 -41 -34 -100 -85 -130 -114 -30 -28 -77 -70 -105 -91 -64 -52
-55 -44 -246 -232 -291 -286 -594 -597 -634 -648 -21 -27 -76 -88 -121 -135
-86 -90 -136 -146 -173 -195 -12 -16 -55 -64 -95 -105 -41 -41 -110 -124 -154
-185 -45 -60 -87 -117 -94 -125 -17 -19 -36 -51 -44 -72 -3 -10 -10 -18 -14
-18 -4 0 -18 -19 -30 -42 -12 -24 -28 -50 -36 -58 -7 -8 -25 -28 -38 -45 l-24
-30 -439 2 c-241 1 -630 5 -864 10 -399 7 -428 9 -448 27 -12 11 -21 23 -21
28 0 23 -77 127 -116 157 -69 53 -104 68 -183 80 -81 13 -223 0 -251 -23 -8
-6 -33 -21 -55 -33 -153 -81 -170 -92 -229 -149 -6 -6 -21 -16 -33 -23 -22
-11 -33 -28 -71 -106 -17 -33 -21 -68 -25 -200 -5 -144 -4 -165 13 -203 11
-24 26 -50 35 -58 8 -9 15 -21 15 -28 0 -14 68 -83 99 -100 11 -6 55 -35 97
-63 42 -29 81 -53 88 -53 7 0 21 -7 32 -15 10 -8 32 -15 47 -15 15 0 41 -7 57
-15 27 -14 33 -14 60 0 22 11 63 15 165 15 127 0 138 2 175 25 51 32 86 71
109 121 12 25 29 44 43 47 25 7 1463 0 1590 -8 61 -3 82 -9 103 -26 14 -13 25
-27 25 -33 0 -6 19 -34 43 -61 24 -28 58 -72 75 -98 18 -27 58 -80 90 -119 31
-39 83 -105 115 -146 32 -42 61 -79 65 -82 5 -3 19 -23 32 -45 13 -22 27 -42
30 -45 4 -3 24 -30 45 -60 21 -30 53 -72 71 -93 19 -20 34 -40 34 -45 0 -4 23
-32 50 -62 67 -72 124 -156 115 -169 -4 -8 -200 -11 -633 -11 l-627 1 -40 24
c-114 67 -236 120 -315 135 -25 5 -61 14 -80 19 -52 16 -200 13 -230 -4 -14
-8 -35 -14 -47 -15 -41 0 -83 -37 -206 -177 -22 -25 -37 -49 -66 -112 -26 -54
-29 -186 -6 -251 8 -23 15 -55 15 -69 0 -15 7 -36 15 -47 8 -10 15 -29 15 -40
0 -12 7 -27 15 -34 8 -7 15 -20 15 -30 0 -10 7 -23 15 -30 8 -7 15 -16 15 -21
0 -16 59 -94 82 -109 49 -31 93 -50 113 -50 12 0 30 -7 41 -15 10 -8 30 -15
42 -15 13 0 36 -6 50 -14 25 -13 89 -29 169 -43 33 -5 120 19 163 46 46 28
145 105 168 131 13 14 46 49 74 78 l51 52 861 0 c728 -1 865 -3 886 -15 14 -8
41 -15 60 -15 31 0 49 -14 145 -108 61 -59 133 -125 160 -147 28 -21 75 -63
105 -91 30 -29 80 -71 110 -95 30 -24 60 -48 66 -54 38 -36 139 -121 153 -129
9 -5 90 -66 180 -135 174 -134 232 -176 296 -218 22 -14 58 -41 81 -60 23 -18
44 -33 48 -33 4 0 13 -6 20 -12 8 -7 24 -20 36 -28 12 -8 42 -30 66 -47 23
-18 46 -33 49 -33 3 0 18 -8 33 -19 66 -46 261 -171 266 -171 3 0 35 -20 72
-45 36 -25 69 -45 74 -45 4 0 32 -15 61 -34 28 -19 82 -50 118 -68 36 -18 70
-39 74 -45 4 -7 16 -13 26 -13 10 0 24 -7 31 -15 7 -8 20 -15 30 -15 10 0 23
-7 30 -15 7 -8 21 -15 31 -15 9 0 24 -6 31 -13 7 -8 26 -17 41 -21 15 -3 27
-11 27 -16 0 -6 7 -10 15 -10 8 0 41 -13 72 -29 32 -16 94 -46 138 -66 44 -21
92 -44 107 -51 14 -8 33 -14 41 -14 8 0 20 -7 27 -15 7 -8 21 -15 32 -15 11 0
32 -6 46 -13 15 -8 42 -21 60 -30 19 -9 41 -17 51 -17 9 0 26 -7 37 -15 10 -8
26 -15 34 -15 8 0 27 -6 42 -14 15 -8 41 -17 59 -21 19 -4 40 -11 49 -16 23
-14 102 -40 135 -46 17 -3 39 -12 50 -19 11 -8 31 -14 45 -14 14 0 34 -7 44
-15 11 -8 34 -15 51 -15 17 0 40 -7 51 -15 10 -8 30 -14 44 -15 14 0 45 -7 70
-15 25 -8 70 -21 100 -29 30 -8 86 -24 124 -35 38 -12 79 -21 91 -21 13 0 39
-7 58 -15 20 -8 52 -15 70 -15 19 0 51 -7 70 -15 20 -8 56 -15 80 -15 25 0 64
-7 87 -15 23 -8 61 -15 85 -15 23 0 64 -7 91 -15 27 -8 74 -15 104 -15 31 0
80 -6 110 -14 30 -7 105 -16 165 -19 61 -4 128 -12 150 -18 29 -9 198 -12 595
-13 488 0 564 2 632 17 42 9 108 17 145 17 37 0 90 7 117 15 27 8 74 15 105
15 31 0 74 7 96 15 22 8 60 14 85 15 25 0 63 7 85 15 22 8 59 14 82 15 24 0
60 6 80 14 21 8 60 17 87 20 27 3 54 10 60 15 6 4 35 11 65 14 29 4 58 10 65
16 6 5 31 12 55 16 24 4 59 14 77 21 18 8 44 14 58 14 13 0 37 7 52 15 16 8
40 15 54 15 14 1 36 7 50 15 14 8 37 14 51 15 14 0 34 7 45 15 10 8 29 15 41
15 12 0 37 6 55 14 41 17 93 35 133 46 53 15 120 41 130 51 5 5 16 9 25 9 8 0
32 9 53 20 20 11 44 20 52 20 8 0 31 7 52 16 21 9 52 22 68 29 17 7 47 20 68
29 21 9 44 16 51 16 8 0 19 7 26 15 7 8 23 15 35 15 12 0 28 7 35 15 7 8 18
15 25 15 7 0 46 16 86 36 149 72 336 167 424 215 50 26 104 55 120 64 17 9 39
22 50 28 96 57 141 85 164 99 14 10 33 21 41 25 8 4 47 28 85 54 39 25 104 68
145 95 41 27 77 51 80 54 6 6 38 29 127 89 33 23 69 49 79 59 10 9 38 30 61
46 24 16 53 38 65 50 13 12 51 43 85 69 34 26 68 53 75 60 7 8 45 38 83 68 39
30 77 59 85 66 8 7 42 33 75 59 33 26 67 54 76 63 9 9 42 39 74 66 166 142
467 440 563 560 61 76 101 114 118 115 5 0 23 13 39 30 l29 30 1030 3 c1132 2
1070 -1 1137 63 31 29 36 37 77 115 40 75 27 229 -25 290 -7 8 -13 19 -13 23
0 11 -43 66 -52 66 -5 0 -21 9 -36 19 -15 11 -69 34 -121 51 -88 29 -99 31
-155 21 -105 -18 -743 -24 -997 -10 -228 12 -229 12 -229 35 0 13 16 40 36 61
19 21 56 65 82 98 25 33 49 62 53 65 7 6 146 191 262 350 56 76 97 141 97 150
0 5 11 17 24 26 23 14 103 15 828 11 662 -4 821 -8 903 -21 55 -8 140 -16 190
-16 49 0 175 -7 280 -16 284 -24 420 -11 494 47 36 29 108 126 131 178 24 53
26 147 4 211 -34 100 -140 190 -240 205 -27 4 -54 11 -60 16 -7 6 -426 9
-1045 8 -1207 -1 -1379 0 -1395 9 -17 10 -98 110 -207 257 -53 72 -104 137
-112 146 -8 9 -15 19 -15 23 0 6 -30 47 -145 201 -18 23 -19 37 -3 53 9 9 242
12 986 12 1035 0 976 -2 1052 41 8 5 22 12 30 16 36 15 105 80 134 127 51 80
82 195 57 210 -5 3 -12 22 -16 42 -13 73 -87 155 -175 195 -19 9 -53 25 -75
35 -38 18 -86 19 -1265 21 -806 2 -1237 6 -1260 13 -19 6 -70 12 -113 14 -70
3 -81 6 -110 32 -128 117 -206 191 -377 359 -188 185 -271 263 -355 333 -22
18 -67 59 -99 90 -33 31 -82 74 -109 94 -27 21 -69 55 -92 77 -24 22 -60 52
-82 68 -22 15 -64 47 -94 71 -142 112 -269 202 -361 257 -9 5 -52 34 -95 64
-173 121 -213 146 -280 176 -18 9 -33 19 -33 23 0 4 -12 13 -27 19 -16 7 -50
25 -78 42 -27 17 -63 37 -80 46 -16 8 -70 38 -120 65 -49 27 -126 68 -170 90
-44 23 -87 45 -95 49 -8 4 -31 15 -50 24 -70 30 -195 90 -210 98 -8 5 -22 12
-30 15 -8 3 -30 12 -47 20 -18 8 -50 21 -70 30 -21 9 -51 22 -66 30 -16 8 -35
14 -44 14 -8 0 -27 6 -41 13 -15 8 -42 21 -60 30 -19 9 -38 17 -44 17 -5 0
-24 7 -41 15 -42 19 -116 45 -147 52 -14 3 -34 12 -45 19 -11 8 -31 14 -45 14
-14 0 -34 7 -44 15 -11 8 -34 15 -51 15 -17 0 -36 5 -42 11 -6 6 -29 15 -50
19 -21 5 -54 13 -73 20 -76 26 -97 32 -135 41 -22 5 -49 14 -60 19 -11 5 -40
13 -65 19 -25 6 -67 15 -95 21 -27 7 -72 18 -99 26 -26 8 -61 14 -76 14 -15 0
-44 7 -63 15 -20 8 -53 15 -74 15 -21 0 -56 7 -78 15 -22 8 -60 14 -85 15 -25
0 -67 7 -94 15 -27 8 -72 15 -100 15 -29 0 -78 7 -109 15 -32 8 -84 15 -115
15 -31 0 -102 7 -156 15 -55 8 -151 15 -215 15 -64 0 -170 7 -236 15 -129 16
-223 16 -465 4z m745 -620 c39 -6 122 -14 185 -18 63 -4 125 -12 137 -19 12
-7 52 -12 88 -12 37 0 97 -6 134 -14 36 -8 93 -19 126 -25 101 -16 189 -37
212 -49 12 -7 35 -12 51 -12 16 0 43 -7 58 -15 16 -8 40 -15 54 -15 14 -1 36
-7 50 -15 14 -8 39 -15 55 -15 17 0 41 -7 55 -15 14 -8 39 -14 56 -15 16 0 39
-7 50 -15 10 -8 33 -15 49 -15 17 0 41 -7 55 -15 14 -8 40 -14 58 -15 19 0 46
-6 60 -14 15 -8 48 -18 74 -21 26 -3 50 -10 53 -16 4 -5 14 -9 23 -9 9 -1 35
-9 57 -20 22 -11 45 -19 51 -20 7 0 25 -7 40 -15 16 -8 36 -15 44 -15 8 0 24
-7 34 -15 11 -8 29 -15 40 -15 12 0 30 -7 40 -15 11 -8 30 -15 42 -15 12 0 27
-7 34 -15 7 -8 23 -15 35 -15 12 0 28 -7 35 -15 7 -8 19 -15 27 -15 8 0 73
-29 146 -64 73 -35 139 -67 147 -70 8 -3 22 -10 30 -15 8 -5 22 -12 30 -15 8
-3 23 -10 33 -16 9 -5 25 -15 35 -20 9 -6 24 -13 32 -16 8 -3 20 -8 25 -10 6
-2 37 -20 70 -39 33 -19 71 -40 85 -46 13 -6 27 -13 30 -17 3 -4 16 -13 30
-20 14 -7 41 -22 60 -33 19 -12 53 -32 75 -43 22 -12 58 -34 81 -48 23 -15 56
-35 75 -45 35 -19 156 -99 269 -178 36 -25 83 -57 105 -72 60 -41 199 -146
210 -159 6 -6 68 -55 139 -109 70 -54 151 -120 180 -147 28 -28 74 -67 101
-87 59 -45 347 -320 460 -440 44 -47 222 -227 395 -401 174 -174 338 -345 365
-381 28 -35 61 -75 75 -89 14 -14 50 -57 80 -95 30 -39 64 -81 77 -95 13 -14
26 -34 29 -45 11 -34 46 -65 75 -65 29 0 43 -12 54 -50 4 -14 19 -40 32 -58
14 -19 25 -46 26 -60 0 -44 -25 -52 -163 -52 -143 0 -142 0 -210 90 -19 25
-79 90 -135 145 -55 55 -119 123 -143 150 -24 28 -96 104 -160 170 -65 66
-153 161 -197 210 -125 141 -707 723 -798 797 -45 37 -102 86 -127 109 -25 23
-76 66 -115 97 -38 31 -74 61 -80 68 -5 6 -36 30 -69 54 -32 23 -67 51 -77 61
-10 10 -30 26 -46 35 -15 10 -56 40 -89 66 -34 26 -64 48 -67 48 -3 0 -18 11
-33 25 -15 14 -38 31 -50 38 -21 11 -192 123 -256 168 -15 11 -29 19 -32 19
-3 0 -22 12 -43 26 -21 14 -47 30 -58 35 -22 11 -41 22 -102 62 -24 15 -46 27
-51 27 -5 0 -17 9 -27 20 -10 11 -23 20 -29 20 -6 0 -29 14 -50 30 -22 17 -44
30 -48 30 -5 0 -24 11 -41 24 -18 13 -52 34 -77 48 -25 13 -63 35 -85 49 -40
25 -232 120 -293 145 -58 24 -106 45 -135 60 -16 8 -37 14 -47 14 -9 0 -23 7
-30 15 -7 8 -23 15 -35 15 -12 0 -28 7 -35 15 -7 8 -19 15 -26 15 -8 0 -31 9
-51 20 -21 11 -43 20 -49 20 -7 0 -25 7 -40 15 -16 8 -36 15 -45 15 -8 0 -20
5 -26 11 -6 6 -26 14 -44 19 -46 11 -98 30 -131 46 -14 8 -35 14 -46 14 -11 0
-33 6 -49 14 -57 28 -104 46 -123 46 -11 0 -34 6 -52 14 -49 20 -128 44 -173
52 -22 3 -45 11 -51 16 -7 5 -36 12 -65 15 -29 3 -64 12 -78 20 -15 7 -42 13
-61 13 -19 0 -53 7 -75 15 -22 8 -60 14 -85 15 -25 0 -63 7 -85 15 -22 8 -70
14 -106 15 -36 0 -88 7 -115 15 -27 8 -85 15 -129 15 -44 0 -107 7 -140 15
-87 21 -903 21 -990 0 -33 -8 -100 -15 -150 -15 -50 0 -112 -7 -139 -15 -27
-8 -73 -15 -101 -15 -29 0 -72 -7 -95 -15 -23 -8 -62 -15 -85 -15 -23 0 -59
-7 -78 -15 -20 -8 -52 -15 -71 -15 -20 0 -50 -6 -68 -14 -18 -8 -58 -19 -88
-25 -94 -20 -174 -39 -210 -50 -19 -6 -47 -11 -61 -11 -15 0 -40 -7 -55 -15
-16 -8 -39 -15 -52 -15 -13 0 -33 -5 -45 -12 -12 -6 -38 -15 -57 -19 -43 -9
-96 -27 -133 -45 -16 -8 -39 -14 -51 -14 -12 0 -31 -7 -42 -15 -10 -8 -27 -15
-37 -15 -11 0 -31 -6 -45 -14 -63 -32 -120 -56 -136 -56 -9 0 -16 -4 -16 -10
0 -5 -12 -13 -27 -16 -15 -4 -34 -13 -41 -21 -7 -7 -22 -13 -31 -13 -10 0 -24
-7 -31 -15 -7 -8 -20 -15 -30 -15 -10 0 -23 -7 -30 -15 -7 -8 -23 -15 -35 -15
-12 0 -28 -7 -35 -15 -7 -8 -20 -15 -30 -15 -10 0 -23 -7 -30 -15 -7 -8 -20
-15 -30 -15 -10 0 -23 -7 -30 -15 -7 -8 -21 -15 -31 -15 -10 0 -20 -4 -24 -9
-3 -5 -34 -24 -70 -41 -36 -17 -67 -36 -70 -41 -4 -5 -15 -9 -26 -9 -10 0 -19
-4 -19 -8 0 -4 -24 -20 -52 -35 -29 -16 -66 -37 -83 -47 -16 -11 -37 -22 -45
-26 -17 -6 -20 -8 -123 -71 -115 -70 -138 -83 -184 -109 -24 -12 -74 -43 -112
-68 -38 -25 -72 -46 -75 -46 -4 0 -21 -13 -39 -30 -18 -16 -35 -30 -40 -30
-12 0 -107 -73 -107 -82 0 -4 -5 -8 -11 -8 -11 0 -83 -52 -104 -74 -5 -6 -28
-23 -51 -39 -22 -15 -50 -36 -60 -46 -11 -10 -44 -35 -74 -56 -30 -21 -59 -44
-65 -50 -5 -7 -37 -32 -70 -57 -33 -25 -71 -56 -85 -68 -14 -12 -36 -31 -50
-43 -14 -12 -41 -33 -60 -47 -19 -13 -82 -70 -140 -126 -58 -56 -127 -120
-155 -142 -71 -55 -658 -640 -805 -802 -235 -258 -519 -540 -543 -540 -12 0
-32 -6 -43 -13 -12 -6 -39 -22 -61 -34 l-39 -21 -44 21 c-25 12 -56 30 -69 39
-27 19 -24 28 36 83 18 17 33 40 33 52 0 18 116 187 161 233 8 8 45 53 83 100
38 47 81 96 95 110 14 14 60 66 101 115 89 107 841 859 920 921 30 23 78 64
105 90 28 26 79 70 115 98 35 28 79 65 96 81 51 48 87 78 127 105 20 14 37 28
37 31 0 4 26 24 58 45 31 21 64 45 73 54 9 8 26 22 39 30 63 42 159 112 191
139 20 17 39 31 43 31 4 0 35 21 70 48 74 55 68 50 216 148 63 42 125 80 138
85 12 5 22 12 22 17 0 4 12 13 28 19 15 7 50 26 77 42 28 17 64 38 80 47 17 8
66 35 110 60 44 24 91 49 105 55 14 6 33 15 43 21 10 5 55 27 100 50 45 22
108 53 140 69 31 16 63 29 71 29 7 0 19 7 26 15 7 8 23 15 35 15 12 0 28 7 35
15 7 8 18 15 26 15 14 0 66 20 117 46 16 8 35 14 42 14 7 0 27 7 44 15 17 8
45 22 62 30 17 8 38 15 47 15 9 0 30 7 45 15 15 8 44 17 64 21 20 4 48 13 62
20 14 8 33 14 42 14 9 0 30 7 45 15 16 8 41 15 55 15 14 0 34 7 45 15 10 8 33
15 49 15 17 0 41 7 55 15 14 8 39 15 55 15 17 0 41 7 55 15 14 8 41 15 60 15
19 0 46 7 60 15 14 8 40 14 58 15 18 0 47 6 65 14 18 7 58 16 90 20 31 4 59
11 62 16 2 4 35 11 72 15 38 4 76 11 85 16 9 5 50 13 90 18 40 5 91 14 113 20
22 6 63 11 90 11 28 0 75 7 105 15 30 8 89 15 130 15 41 1 113 7 160 14 106
17 1006 21 1115 5z m-78 -410 c15 -6 69 -13 118 -16 50 -2 122 -11 162 -19 40
-8 90 -14 111 -14 22 0 56 -7 75 -15 20 -8 57 -15 82 -15 25 0 62 -7 82 -15
19 -8 50 -15 67 -15 17 -1 42 -7 56 -15 14 -8 36 -14 50 -15 14 0 38 -7 54
-15 15 -8 40 -15 55 -15 14 0 39 -7 55 -15 15 -8 37 -15 48 -15 10 0 32 -7 47
-15 16 -8 46 -19 67 -24 50 -12 102 -30 136 -47 14 -8 35 -14 46 -14 11 0 25
-7 32 -15 7 -8 22 -15 34 -15 12 0 31 -7 42 -15 10 -8 29 -15 40 -15 12 0 27
-7 34 -15 7 -8 18 -15 24 -15 13 0 124 -44 133 -54 3 -3 14 -6 22 -6 9 0 33
-9 54 -20 20 -11 43 -20 51 -20 7 0 19 -7 26 -15 7 -8 21 -15 30 -15 10 0 31
-7 47 -15 15 -8 66 -32 113 -55 90 -42 168 -84 185 -97 6 -4 35 -21 65 -36 30
-16 62 -32 70 -37 8 -5 22 -11 30 -14 8 -4 29 -15 45 -26 17 -11 39 -24 50
-30 33 -17 126 -76 189 -118 44 -30 71 -46 106 -64 14 -7 41 -25 61 -40 20
-15 40 -28 44 -28 4 0 24 -13 45 -30 21 -16 41 -30 44 -30 7 0 115 -79 175
-127 19 -16 51 -38 73 -51 21 -13 38 -27 38 -33 0 -5 5 -9 10 -9 11 0 60 -33
94 -62 11 -10 38 -30 60 -45 22 -16 48 -35 56 -43 70 -65 111 -100 153 -132
27 -21 91 -77 141 -125 50 -49 123 -115 161 -147 39 -32 212 -199 385 -371
506 -502 565 -564 675 -720 48 -67 180 -228 210 -255 48 -44 115 -138 115
-161 0 -12 -16 -41 -35 -65 -19 -23 -35 -51 -35 -61 0 -10 -10 -29 -23 -43
-66 -73 -205 -231 -228 -260 -15 -17 -60 -66 -101 -108 -41 -43 -90 -97 -109
-122 -34 -45 -56 -71 -135 -159 -23 -25 -60 -68 -82 -96 -50 -63 -465 -472
-592 -584 -52 -46 -132 -119 -178 -162 -45 -43 -115 -104 -155 -136 -39 -31
-76 -63 -80 -70 -4 -7 -13 -13 -20 -13 -7 0 -39 -23 -72 -52 -33 -28 -76 -61
-96 -74 -20 -12 -42 -28 -50 -36 -8 -8 -31 -24 -52 -37 -21 -13 -53 -37 -70
-52 -17 -16 -35 -29 -40 -29 -5 0 -34 -19 -65 -42 -32 -24 -66 -48 -77 -55
-11 -7 -40 -24 -65 -39 -25 -15 -51 -34 -58 -41 -7 -7 -18 -13 -23 -13 -6 0
-25 -11 -42 -24 -18 -14 -43 -30 -57 -36 -14 -6 -34 -16 -45 -23 -11 -7 -38
-24 -60 -37 -128 -78 -259 -156 -275 -163 -8 -4 -22 -11 -30 -16 -8 -5 -22
-12 -30 -15 -8 -3 -22 -10 -30 -15 -8 -5 -22 -12 -30 -15 -8 -3 -22 -10 -30
-15 -15 -8 -139 -68 -280 -134 -41 -19 -104 -49 -140 -66 -36 -17 -70 -31 -76
-31 -7 0 -17 -7 -24 -15 -7 -8 -21 -15 -31 -15 -16 0 -61 -19 -121 -51 -10 -5
-23 -9 -31 -9 -7 0 -29 -9 -50 -20 -20 -11 -47 -20 -59 -20 -13 0 -32 -7 -42
-15 -11 -8 -31 -15 -45 -15 -14 0 -35 -7 -45 -15 -11 -8 -34 -15 -50 -15 -17
0 -40 -7 -50 -15 -11 -8 -34 -15 -51 -15 -17 0 -40 -7 -51 -15 -10 -8 -38 -15
-62 -15 -23 0 -59 -7 -79 -15 -19 -8 -49 -15 -65 -15 -16 0 -39 -5 -51 -12
-22 -11 -87 -25 -257 -53 -47 -7 -101 -19 -120 -24 -19 -6 -57 -11 -83 -11
-27 0 -58 -5 -69 -11 -11 -6 -78 -15 -147 -20 -69 -4 -180 -13 -246 -18 -147
-13 -588 -13 -670 0 -33 5 -123 13 -200 18 -77 5 -167 13 -200 19 -33 6 -94
16 -135 22 -180 25 -379 62 -423 79 -16 6 -43 11 -61 11 -19 0 -50 7 -69 15
-20 8 -49 15 -64 15 -15 0 -37 7 -47 15 -11 8 -38 15 -60 15 -23 1 -52 7 -66
15 -14 8 -36 14 -50 15 -14 0 -38 7 -54 15 -15 8 -36 15 -45 15 -9 0 -29 7
-45 15 -15 8 -36 15 -45 15 -9 0 -25 6 -36 14 -11 7 -36 17 -55 21 -19 4 -44
14 -55 21 -11 8 -27 14 -36 14 -10 0 -30 6 -46 14 -15 8 -44 21 -63 29 -19 9
-64 29 -100 45 -36 16 -72 33 -80 36 -8 3 -22 10 -30 14 -43 24 -83 42 -95 42
-7 0 -18 7 -25 15 -7 8 -20 15 -29 15 -9 0 -33 9 -54 20 -20 11 -42 20 -48 20
-6 0 -17 7 -25 15 -9 8 -24 15 -33 15 -10 0 -24 7 -31 15 -7 8 -23 15 -36 15
-12 0 -25 4 -28 9 -4 5 -27 20 -54 32 -26 13 -65 35 -87 49 -22 14 -49 31 -60
38 -11 7 -32 17 -47 23 -16 6 -28 15 -28 19 0 5 -9 11 -19 15 -11 3 -49 25
-84 48 -36 23 -102 65 -147 92 -45 28 -87 55 -93 60 -7 6 -30 22 -52 35 -22
13 -43 28 -46 32 -3 5 -23 18 -43 29 -21 11 -101 68 -177 127 -77 59 -161 123
-187 142 -27 19 -70 55 -96 80 -67 62 -63 59 -141 121 -38 31 -81 67 -93 79
-13 12 -56 48 -95 80 -88 70 -1009 993 -1068 1070 -23 30 -68 82 -100 115 -31
33 -69 78 -84 100 -14 22 -56 72 -93 110 -93 97 -132 149 -132 176 0 17 31 54
101 125 55 55 117 123 137 151 53 74 163 215 181 234 9 9 41 46 71 83 55 66
555 559 620 611 19 16 90 83 156 149 149 148 194 190 260 242 29 23 71 59 95
82 24 22 67 57 94 78 28 20 70 56 95 79 52 48 168 143 244 197 28 21 58 44 67
53 9 8 19 15 23 15 5 0 25 13 45 29 56 44 134 98 286 198 77 51 145 97 152
103 7 5 17 10 22 10 5 0 16 6 23 13 7 7 35 27 61 43 27 16 61 37 75 46 15 10
36 22 47 28 11 6 34 19 50 30 17 11 44 26 60 34 17 8 53 29 80 46 28 16 64 37
80 45 17 9 46 25 65 37 19 11 94 50 165 85 135 67 163 80 230 108 22 9 58 25
81 36 23 10 47 19 55 19 8 0 23 7 33 15 11 8 28 15 37 15 10 0 32 8 51 17 18
9 45 22 60 30 14 7 35 13 45 13 11 0 28 7 39 15 10 8 31 15 45 15 14 0 34 7
45 15 10 8 28 15 39 15 11 0 33 7 49 15 15 8 38 15 50 15 11 0 34 7 49 15 15
8 45 17 65 21 20 4 51 13 69 21 18 7 46 13 62 13 16 0 32 4 36 9 3 6 27 13 53
16 26 3 69 12 96 20 26 8 65 15 86 15 21 0 57 7 80 15 23 8 57 15 75 15 18 0
52 7 75 15 23 8 66 15 95 15 28 0 74 7 101 15 27 8 76 15 109 15 33 1 87 7
120 14 77 18 858 22 902 5z m-6645 -3579 c18 -16 38 -30 46 -30 7 0 33 -20 58
-45 24 -25 50 -45 58 -45 21 0 209 -189 236 -237 13 -24 27 -43 32 -43 4 0 14
-12 22 -27 8 -16 32 -46 53 -69 52 -56 140 -156 200 -229 28 -33 131 -141 230
-240 182 -183 229 -228 457 -440 72 -66 150 -140 175 -164 26 -24 77 -69 116
-100 38 -31 81 -67 95 -81 14 -14 57 -50 95 -80 39 -30 86 -69 106 -87 19 -18
56 -47 82 -64 26 -17 47 -34 47 -37 0 -4 17 -18 38 -32 20 -13 80 -56 132 -95
52 -38 102 -74 111 -80 24 -14 232 -152 244 -162 6 -5 28 -20 50 -33 22 -13
43 -28 46 -32 3 -5 22 -17 42 -28 76 -41 103 -57 145 -83 23 -15 61 -38 83
-50 22 -12 56 -32 77 -44 20 -13 44 -25 52 -29 8 -3 22 -9 30 -14 8 -5 50 -27
92 -49 42 -22 85 -44 95 -50 66 -35 167 -81 179 -81 8 0 14 -4 14 -9 0 -5 10
-13 23 -16 12 -4 36 -13 52 -20 127 -58 167 -75 184 -75 10 0 24 -7 31 -15 7
-8 25 -15 39 -15 15 0 36 -7 47 -15 10 -8 28 -15 40 -15 11 0 29 -7 40 -15 10
-8 26 -15 34 -15 8 0 33 -9 55 -20 22 -11 48 -19 57 -20 9 0 19 -4 22 -9 3 -5
22 -12 43 -16 20 -4 46 -13 57 -21 11 -8 34 -14 51 -14 17 0 35 -4 41 -10 5
-5 30 -14 54 -19 25 -5 59 -14 75 -19 95 -31 136 -42 164 -42 17 0 48 -7 68
-15 19 -8 49 -15 65 -15 16 0 45 -7 65 -15 19 -8 52 -15 72 -15 20 0 63 -7 96
-14 33 -8 92 -17 130 -21 39 -4 81 -12 95 -17 13 -5 67 -13 120 -19 52 -5 118
-13 145 -18 28 -6 111 -10 185 -11 80 0 159 -7 195 -15 70 -17 651 -20 745 -4
30 5 111 13 180 17 69 5 135 14 147 20 12 7 39 12 60 12 21 0 64 6 94 14 31 8
80 18 110 21 30 4 73 13 97 21 23 8 59 14 80 14 20 0 59 7 86 15 27 8 65 15
85 15 20 1 47 7 61 15 14 8 39 15 55 15 17 0 41 7 55 15 14 8 39 14 55 15 17
0 39 6 50 14 11 7 34 16 50 18 36 7 89 25 128 44 16 8 35 14 44 14 8 0 29 6
46 14 93 42 127 56 139 56 7 0 22 7 32 15 11 8 28 15 37 15 10 0 31 7 48 15
17 8 45 22 62 30 17 8 39 15 49 15 9 0 23 7 30 15 7 8 21 15 32 15 11 0 32 6
46 13 15 8 43 21 62 30 19 8 83 38 141 66 58 28 109 51 113 51 4 0 14 7 22 15
9 8 24 15 33 15 10 0 24 7 31 15 7 8 20 15 30 15 10 0 23 7 30 15 7 8 20 15
30 15 10 0 23 7 30 15 7 8 20 15 29 15 9 1 34 12 56 25 22 14 54 31 70 40 17
8 46 24 65 36 19 12 57 33 83 48 69 37 75 41 152 92 39 25 104 68 145 94 41
27 109 74 150 105 41 31 93 68 115 82 22 14 49 34 60 44 11 11 38 31 60 45 22
14 51 38 65 52 14 15 30 27 35 27 6 0 24 12 40 26 17 14 64 53 105 86 41 33
108 90 148 127 41 36 81 70 90 75 10 5 22 14 28 20 6 6 35 31 64 56 125 106
220 189 285 251 39 37 86 80 105 95 50 42 118 111 172 174 25 30 97 107 159
171 63 64 145 151 184 195 38 43 80 90 94 104 13 14 49 57 79 95 65 82 116
136 309 332 78 80 145 153 148 163 3 11 14 21 23 24 29 8 236 11 249 3 19 -12
4 -107 -23 -142 -12 -17 -28 -41 -34 -55 -16 -37 -33 -65 -50 -82 -54 -56
-100 -108 -122 -141 -14 -22 -64 -78 -110 -126 -45 -48 -95 -105 -110 -126
-15 -22 -59 -74 -97 -115 -39 -41 -71 -80 -71 -86 0 -15 -74 -89 -125 -126
-56 -41 -223 -206 -250 -248 -23 -36 -60 -73 -175 -176 -36 -32 -76 -74 -89
-94 -27 -39 -137 -140 -282 -257 -52 -43 -111 -91 -130 -106 -19 -15 -54 -47
-79 -70 -25 -24 -72 -64 -105 -90 -33 -26 -96 -77 -140 -112 -44 -36 -118 -95
-164 -131 -46 -37 -89 -71 -95 -76 -6 -5 -51 -38 -101 -73 -49 -36 -96 -71
-104 -78 -16 -13 -98 -64 -118 -72 -7 -3 -19 -7 -25 -10 -7 -3 -44 -23 -83
-44 -140 -78 -307 -167 -500 -266 -82 -42 -157 -80 -165 -85 -8 -5 -22 -11
-30 -14 -8 -3 -22 -10 -30 -15 -8 -5 -22 -12 -30 -15 -8 -3 -22 -10 -30 -15
-17 -10 -218 -106 -270 -129 -19 -8 -47 -21 -62 -29 -14 -7 -33 -13 -41 -13
-9 0 -29 -7 -46 -15 -17 -8 -45 -22 -62 -30 -17 -8 -38 -15 -48 -15 -9 0 -26
-7 -37 -15 -10 -8 -26 -15 -34 -15 -8 0 -28 -7 -44 -15 -15 -8 -33 -15 -38
-15 -6 0 -24 -7 -41 -15 -35 -15 -110 -43 -142 -52 -11 -3 -34 -11 -52 -19
-17 -8 -40 -14 -51 -14 -11 0 -33 -7 -48 -15 -16 -8 -42 -15 -59 -15 -16 0
-39 -7 -49 -15 -11 -8 -33 -15 -48 -15 -16 0 -45 -7 -65 -15 -19 -8 -46 -15
-60 -15 -13 0 -34 -5 -45 -11 -26 -14 -122 -37 -207 -49 -35 -5 -77 -14 -95
-20 -17 -6 -60 -14 -96 -19 -36 -5 -83 -14 -105 -20 -22 -6 -60 -11 -85 -11
-25 0 -61 -5 -80 -11 -19 -6 -114 -15 -210 -20 -96 -5 -200 -13 -230 -18 -94
-16 -768 -13 -905 4 -66 8 -154 15 -195 15 -41 0 -93 5 -115 11 -22 6 -72 15
-112 19 -40 5 -78 12 -85 16 -7 4 -49 14 -93 21 -153 24 -210 35 -228 44 -9 5
-39 12 -65 16 -26 3 -59 12 -74 19 -15 8 -42 14 -60 14 -18 1 -44 7 -58 15
-14 8 -36 14 -50 15 -14 0 -38 7 -54 15 -15 8 -40 15 -55 15 -15 0 -36 7 -47
15 -10 8 -32 15 -49 15 -16 0 -43 7 -59 15 -15 8 -37 15 -48 15 -11 0 -34 6
-51 14 -72 30 -143 56 -157 56 -8 0 -24 7 -34 15 -11 8 -29 15 -41 15 -12 0
-25 4 -30 9 -6 5 -26 14 -45 19 -67 20 -104 33 -205 77 -16 7 -55 23 -85 34
-81 32 -134 55 -211 90 -25 12 -50 21 -56 21 -6 0 -16 7 -23 15 -7 8 -23 15
-35 15 -12 0 -28 7 -35 15 -7 8 -20 15 -30 15 -10 0 -23 7 -30 15 -7 8 -21 15
-31 15 -10 0 -20 4 -23 9 -3 4 -47 30 -98 56 -51 26 -120 61 -153 79 -155 84
-182 99 -215 118 -8 4 -26 13 -40 19 -13 5 -27 13 -30 17 -3 4 -23 16 -44 27
-22 11 -121 74 -220 141 -253 168 -305 205 -329 231 -12 12 -26 23 -32 23 -5
0 -23 12 -40 26 -62 52 -220 180 -271 220 -29 22 -81 66 -116 96 -35 31 -85
74 -113 95 -27 20 -61 49 -75 63 -14 14 -63 57 -110 95 -100 82 -485 468 -540
540 -21 28 -106 120 -190 205 -83 85 -161 166 -173 180 -32 37 -121 151 -139
180 -17 26 -37 50 -97 115 -20 22 -47 56 -60 75 -13 19 -64 74 -113 121 l-90
86 -5 64 c-3 35 0 76 6 92 10 26 13 27 90 27 75 0 82 -2 113 -30z"/>
<path d="M11319 14186 c-3 -3 -61 -10 -130 -17 -68 -6 -149 -17 -180 -25 -31
-8 -76 -14 -100 -14 -24 0 -66 -7 -93 -15 -27 -8 -73 -15 -101 -15 -29 0 -69
-7 -88 -15 -20 -8 -53 -15 -74 -15 -21 -1 -49 -7 -63 -15 -14 -8 -38 -15 -55
-15 -16 0 -41 -7 -55 -15 -14 -8 -39 -14 -56 -15 -16 0 -39 -7 -50 -15 -10 -8
-32 -15 -47 -15 -16 0 -43 -6 -60 -14 -18 -7 -68 -25 -112 -39 -146 -48 -184
-62 -248 -93 -16 -8 -34 -14 -42 -14 -13 0 -140 -52 -187 -76 -14 -8 -31 -14
-37 -14 -5 0 -38 -13 -73 -29 -35 -17 -108 -48 -163 -71 -55 -23 -104 -46
-109 -51 -6 -5 -18 -9 -27 -9 -9 0 -22 -7 -29 -15 -7 -8 -21 -15 -31 -15 -10
0 -45 -13 -76 -29 -32 -16 -80 -40 -108 -54 -183 -91 -412 -280 -571 -472 -27
-33 -63 -74 -79 -91 -68 -70 -255 -308 -255 -324 0 -6 -7 -10 -16 -10 -11 0
-14 -6 -9 -21 6 -19 4 -21 -14 -16 -17 4 -21 1 -21 -18 0 -13 -7 -26 -16 -29
-10 -4 -14 -14 -11 -26 4 -15 0 -20 -14 -20 -10 0 -19 -7 -19 -15 0 -8 -9 -23
-20 -32 -11 -10 -20 -25 -20 -34 0 -9 -7 -22 -15 -29 -8 -7 -15 -19 -15 -26 0
-8 -4 -14 -10 -14 -5 0 -12 -11 -16 -25 -3 -14 -11 -29 -18 -33 -16 -10 -46
-70 -46 -93 0 -10 -6 -19 -14 -19 -18 0 -27 -23 -15 -41 5 -8 9 -23 9 -34 0
-19 -2 -18 -19 4 -18 23 -18 23 -24 2 -3 -11 -1 -24 4 -27 12 -7 12 -54 0 -54
-5 0 -13 10 -17 22 -6 20 -7 20 -16 4 -7 -12 -7 -21 1 -29 15 -15 13 -48 -4
-71 -8 -11 -15 -28 -15 -38 0 -10 -4 -18 -9 -18 -5 0 -12 -13 -16 -29 -3 -16
-13 -35 -21 -42 -8 -6 -14 -22 -14 -34 0 -12 -7 -28 -15 -35 -8 -7 -15 -22
-15 -34 0 -12 -6 -30 -14 -41 -7 -11 -17 -47 -21 -80 -8 -60 -8 -60 -18 -25
-17 64 -20 65 -31 15 -6 -27 -17 -60 -23 -72 -7 -12 -13 -37 -13 -55 0 -19 -7
-43 -15 -54 -8 -10 -15 -33 -15 -50 0 -18 -7 -56 -16 -85 -9 -30 -23 -76 -31
-103 -15 -50 -20 -307 -6 -328 3 -6 12 -36 19 -67 19 -84 41 -157 53 -180 6
-11 11 -30 11 -43 0 -13 7 -33 15 -44 8 -10 15 -31 15 -46 0 -15 7 -33 15 -42
8 -8 15 -26 15 -40 0 -13 7 -31 15 -40 8 -8 15 -21 15 -29 0 -23 11 -47 21
-47 5 0 9 16 9 35 0 24 -5 35 -15 35 -11 0 -15 11 -15 39 0 22 4 42 9 45 10 7
21 -17 21 -46 0 -10 7 -26 15 -34 8 -9 15 -26 15 -38 0 -13 7 -29 15 -36 8 -7
15 -19 15 -27 0 -8 6 -27 14 -41 8 -15 25 -48 37 -74 21 -44 21 -48 6 -72 -11
-15 -13 -27 -7 -31 6 -3 13 1 16 9 9 22 24 20 24 -3 0 -11 7 -27 16 -36 13
-12 15 -26 10 -58 -6 -34 -5 -40 5 -29 18 17 29 15 29 -7 0 -11 7 -26 15 -35
8 -8 15 -26 15 -40 0 -14 5 -28 10 -31 6 -3 10 -13 10 -21 0 -15 39 -76 53
-82 4 -2 7 -10 7 -17 0 -8 8 -20 18 -27 10 -7 27 -29 38 -48 10 -19 24 -40 29
-47 17 -21 29 -37 60 -78 16 -22 56 -71 88 -110 83 -98 89 -105 122 -150 16
-22 39 -50 51 -63 12 -12 24 -36 28 -52 3 -17 19 -44 36 -60 16 -16 30 -34 30
-40 0 -14 27 -13 33 3 2 7 8 8 13 3 5 -5 4 -11 -3 -13 -18 -6 -16 -33 2 -33 8
0 15 7 15 15 0 8 5 15 10 15 6 0 10 -4 10 -8 0 -4 16 -24 36 -45 25 -26 31
-37 20 -37 -9 0 -16 5 -16 10 0 6 -4 10 -10 10 -21 0 -8 -24 43 -77 92 -98
147 -147 202 -180 65 -39 247 -134 445 -233 80 -39 152 -76 160 -81 8 -5 22
-12 30 -15 8 -3 43 -19 76 -34 34 -16 73 -32 88 -36 14 -3 29 -10 32 -15 3 -5
12 -9 21 -9 9 0 34 -9 57 -19 23 -10 61 -27 86 -36 25 -9 54 -22 65 -28 11 -5
33 -14 50 -18 16 -4 46 -13 65 -20 19 -6 51 -17 70 -24 19 -7 62 -20 95 -30
33 -9 75 -23 93 -31 18 -8 43 -14 55 -14 12 0 42 -6 67 -14 92 -30 147 -45
190 -52 24 -4 55 -13 69 -21 14 -7 37 -13 51 -13 14 0 54 -6 90 -14 132 -29
247 -46 315 -46 39 -1 106 -7 150 -15 93 -17 506 -20 570 -5 22 5 101 12 175
16 74 3 158 12 187 20 28 8 73 14 100 14 26 1 66 7 88 15 22 8 54 15 72 15 18
0 52 6 75 14 24 8 59 17 78 21 48 9 128 34 167 51 17 8 40 14 51 14 11 0 33 7
48 15 16 8 37 15 47 15 10 0 28 5 40 12 12 6 38 15 57 19 43 9 96 27 133 45
16 8 38 14 50 14 12 0 31 7 41 15 11 8 29 15 41 15 11 0 38 9 60 20 22 11 47
20 57 20 9 0 20 5 23 10 3 6 14 10 23 10 10 0 34 9 55 20 20 11 43 20 51 20 8
0 27 6 43 14 15 8 46 22 68 32 22 9 52 23 67 31 14 7 33 13 41 13 8 0 20 7 27
15 7 8 20 15 29 15 15 0 287 134 396 195 157 88 262 170 373 294 139 155 216
242 231 265 8 12 49 62 91 111 41 50 89 108 105 130 16 22 33 45 37 50 33 41
77 106 93 138 11 22 30 50 42 63 13 14 26 36 29 49 3 14 10 25 15 25 5 0 9 9
9 20 0 11 7 23 15 26 8 4 15 17 15 29 0 22 27 83 41 95 4 3 9 15 13 28 4 13
15 22 26 22 16 0 19 5 13 32 -6 28 -4 31 15 26 19 -5 22 -2 22 27 0 20 6 35
15 39 8 3 15 14 15 24 0 11 7 25 15 32 8 7 15 22 15 34 0 11 7 30 15 40 8 11
15 27 15 37 0 9 7 30 15 45 8 16 15 37 15 47 0 10 8 17 20 17 15 0 20 7 20 29
0 16 7 34 15 41 8 7 15 25 15 41 0 15 7 34 15 43 8 8 18 30 22 48 3 18 12 42
20 53 7 11 13 32 13 47 0 14 7 33 15 42 8 8 15 24 15 35 0 11 5 32 11 48 22
54 41 169 46 275 4 88 1 121 -16 185 -28 106 -45 163 -59 196 -7 16 -12 37
-12 48 0 11 -6 32 -14 47 -7 15 -16 43 -20 64 -4 20 -13 39 -21 42 -10 3 -15
19 -15 46 0 45 -11 52 -28 18 -9 -18 -10 -9 -5 45 6 70 -5 89 -24 40 l-10 -28
-7 36 c-5 22 -3 45 3 57 7 12 7 23 2 26 -5 4 -11 1 -13 -6 -9 -26 -30 5 -25
37 4 26 2 32 -11 31 -14 -1 -17 7 -15 40 1 33 -2 41 -15 40 -13 -1 -16 6 -14
27 2 17 -3 29 -13 33 -8 3 -15 16 -15 28 -1 11 -18 53 -40 91 -21 39 -50 93
-64 120 -39 77 -78 145 -113 198 -18 26 -33 51 -33 54 0 3 -13 22 -30 43 -16
21 -30 43 -30 48 0 6 -6 15 -12 19 -15 9 -33 37 -48 71 -5 12 -14 22 -20 22
-5 0 -10 9 -10 21 0 18 -4 20 -27 14 -23 -5 -25 -4 -13 10 9 11 10 19 3 26 -8
8 -13 7 -17 0 -4 -6 -12 -11 -19 -11 -8 0 -8 3 1 12 19 19 14 27 -27 44 -40
16 -58 38 -41 49 18 11 10 26 -10 20 -19 -6 -20 -4 -14 22 7 25 6 27 -9 15
-21 -18 -43 -6 -26 14 9 11 7 14 -10 14 -14 0 -21 6 -21 20 0 11 -7 20 -15 20
-8 0 -15 3 -15 8 -1 22 -331 342 -353 342 -4 0 -29 13 -56 29 -28 17 -96 53
-153 81 -250 126 -295 149 -328 169 -19 11 -42 23 -50 27 -8 3 -49 21 -90 41
-41 19 -91 42 -110 50 -19 9 -42 20 -50 25 -8 4 -22 11 -30 14 -8 3 -31 13
-50 22 -48 21 -87 37 -140 57 -25 9 -58 23 -73 31 -16 8 -33 14 -39 14 -5 0
-24 6 -41 14 -18 8 -63 24 -102 36 -38 13 -78 27 -87 31 -10 5 -34 13 -55 18
-21 5 -51 14 -68 19 -94 32 -133 42 -160 42 -16 1 -41 7 -55 15 -14 8 -40 14
-58 15 -18 0 -49 7 -69 15 -19 8 -52 15 -72 15 -20 1 -54 7 -76 15 -22 8 -53
15 -69 15 -16 0 -55 6 -85 14 -97 25 -763 60 -782 42z m1723 -835 c13 -5 36
-22 53 -38 16 -15 40 -29 54 -30 26 -2 103 -31 111 -41 3 -4 28 -17 55 -30 28
-13 57 -27 65 -32 8 -5 40 -21 70 -36 30 -14 74 -39 98 -55 24 -16 47 -29 51
-29 5 0 14 -7 21 -15 7 -8 23 -15 37 -15 22 0 23 -1 9 -16 -15 -14 -13 -18 21
-41 21 -14 42 -31 48 -38 5 -6 28 -23 50 -36 22 -13 45 -27 50 -31 6 -5 20
-16 32 -26 11 -9 31 -24 43 -32 13 -8 44 -36 70 -62 49 -50 60 -56 60 -35 0 6
-14 21 -30 32 -16 11 -30 23 -30 28 0 11 -38 47 -50 47 -5 0 -10 7 -10 15 0 8
-7 15 -15 15 -9 0 -18 7 -21 15 -4 8 -11 15 -16 15 -5 0 -31 17 -56 37 -26 21
-49 39 -51 40 -3 2 0 8 5 13 10 10 79 -35 125 -81 10 -10 30 -26 46 -36 15
-10 34 -22 42 -28 32 -24 282 -276 332 -335 30 -35 71 -83 91 -105 42 -45 168
-211 168 -220 0 -4 16 -27 35 -52 19 -25 35 -51 35 -58 0 -7 7 -15 15 -19 8
-3 15 -14 15 -25 0 -11 4 -22 9 -26 6 -3 20 -26 33 -51 20 -40 21 -47 7 -57
-15 -12 -15 -47 1 -47 4 0 11 10 15 23 6 21 7 21 17 -8 6 -16 15 -32 19 -35 4
-3 13 -17 18 -30 6 -14 15 -32 19 -40 24 -42 32 -61 32 -77 0 -10 9 -24 19
-30 13 -8 18 -19 14 -33 -3 -11 -1 -20 5 -20 6 0 14 -10 17 -22 4 -13 44 -99
90 -193 140 -287 139 -285 124 -357 -6 -27 -17 -62 -25 -76 -8 -15 -14 -38
-14 -52 0 -15 -4 -30 -9 -35 -6 -6 -14 -28 -20 -50 -10 -44 -27 -93 -47 -143
-8 -18 -14 -40 -14 -49 0 -14 -41 -110 -71 -165 -5 -10 -9 -24 -9 -32 0 -7 -7
-19 -15 -26 -9 -8 -13 -21 -9 -32 4 -14 0 -21 -15 -25 -16 -4 -19 -11 -15 -32
4 -18 0 -33 -9 -43 -8 -8 -16 -23 -18 -33 -5 -23 -29 -32 -29 -11 0 9 -4 16
-10 16 -5 0 -10 -7 -10 -15 0 -8 5 -15 10 -15 16 0 12 -46 -5 -60 -8 -7 -15
-21 -15 -32 0 -10 -7 -21 -15 -24 -8 -4 -15 -14 -15 -24 0 -11 -5 -22 -11 -25
-5 -4 -15 -17 -20 -28 -5 -12 -17 -34 -27 -49 -9 -14 -30 -48 -46 -75 -16 -26
-36 -54 -43 -61 -7 -7 -13 -18 -13 -23 0 -12 -112 -162 -148 -199 -13 -14 -53
-59 -88 -100 -35 -41 -95 -102 -134 -135 -39 -33 -91 -86 -116 -118 -28 -35
-74 -76 -118 -104 -39 -26 -82 -56 -96 -69 -46 -40 -155 -110 -236 -150 -43
-21 -80 -42 -82 -46 -5 -11 -52 -10 -52 1 0 5 10 16 23 24 l22 16 -27 0 c-18
1 -28 -4 -28 -13 0 -7 -10 -17 -22 -20 l-23 -7 23 -9 c31 -13 28 -27 -8 -35
-16 -4 -32 -11 -35 -16 -14 -22 -76 -41 -117 -35 -24 3 -35 3 -25 0 23 -7 18
-38 -7 -42 -11 -2 -26 -10 -34 -18 -7 -8 -24 -14 -37 -14 -12 0 -25 -7 -29
-15 -3 -8 -18 -15 -34 -15 -15 0 -34 -6 -40 -12 -7 -7 -23 -14 -35 -15 -12 -1
-34 -5 -49 -8 -23 -6 -28 -4 -34 19 -8 31 6 50 55 76 20 11 67 48 104 84 38
36 87 80 110 98 57 43 115 95 220 195 57 54 94 82 103 79 12 -5 14 -1 9 16 -6
18 -4 20 14 15 12 -3 18 -1 15 4 -3 5 21 40 53 77 67 76 132 162 184 242 38
59 159 302 159 320 0 6 6 21 14 33 14 22 71 192 101 302 9 33 23 82 31 109 7
26 14 64 14 83 0 19 5 44 12 56 6 12 15 56 19 97 5 41 13 95 18 120 6 25 10
187 10 360 0 173 -4 335 -10 360 -5 25 -13 79 -18 120 -4 41 -13 85 -19 97 -7
12 -12 34 -12 50 0 15 -6 48 -14 73 -8 25 -31 97 -51 160 -50 159 -64 195
-146 365 -82 169 -88 179 -290 440 -55 72 -352 356 -456 437 -38 29 -84 68
-103 86 -19 18 -47 35 -62 39 -38 8 -68 39 -68 72 0 42 15 50 62 32z m-3055
-47 c9 -24 -14 -63 -43 -75 -15 -5 -41 -21 -58 -35 -71 -57 -145 -112 -211
-157 -73 -49 -228 -191 -237 -217 -3 -9 -18 -22 -34 -30 -16 -8 -36 -22 -44
-31 -9 -8 -25 -22 -36 -30 -10 -8 -37 -36 -59 -64 -22 -27 -47 -57 -55 -66
-49 -53 -70 -80 -106 -132 -21 -32 -45 -70 -53 -85 -8 -15 -17 -29 -21 -32 -4
-3 -31 -54 -59 -115 -29 -60 -58 -121 -65 -135 -21 -39 -30 -80 -30 -139 -1
-34 -6 -56 -13 -58 -9 -3 -13 6 -13 27 0 18 -4 29 -10 25 -15 -9 -12 -41 6
-56 18 -14 13 -60 -11 -106 -8 -15 -15 -40 -15 -55 0 -15 -4 -29 -9 -33 -6 -3
-13 -27 -17 -53 -4 -26 -13 -64 -20 -86 -8 -21 -14 -59 -14 -85 0 -25 -7 -68
-15 -95 -21 -70 -21 -643 0 -731 8 -33 15 -80 15 -105 0 -25 7 -58 15 -74 8
-15 15 -46 15 -68 0 -22 6 -52 14 -66 8 -15 18 -48 21 -74 3 -26 10 -50 16
-53 13 -9 11 -79 -2 -92 -7 -7 -9 -19 -5 -28 5 -14 9 -15 20 -6 9 8 16 8 20 2
4 -5 2 -12 -4 -16 -15 -9 -12 -61 5 -75 8 -7 15 -25 15 -40 0 -15 7 -33 15
-40 8 -7 15 -20 15 -29 0 -10 7 -26 15 -37 8 -10 15 -24 15 -31 0 -6 16 -35
35 -64 19 -30 35 -57 35 -61 0 -14 121 -185 176 -250 29 -35 91 -108 136 -163
105 -128 327 -351 398 -401 111 -78 184 -124 196 -124 6 0 17 -7 24 -15 7 -8
21 -15 31 -15 25 0 52 -43 44 -69 -10 -31 -46 -35 -98 -12 -25 12 -50 21 -56
21 -5 0 -22 7 -38 14 -15 8 -35 17 -43 20 -8 3 -22 10 -30 15 -8 5 -37 19 -65
32 -27 12 -52 25 -55 29 -9 11 -90 50 -105 50 -8 0 -15 5 -15 10 0 6 -6 10
-12 10 -22 0 -214 103 -303 161 -16 10 -38 22 -47 25 -10 4 -18 10 -18 14 0 5
-20 20 -44 34 -41 24 -164 142 -346 332 -95 99 -280 312 -280 323 0 4 -16 25
-35 47 -80 87 -235 308 -235 332 0 7 -5 12 -10 12 -6 0 -15 10 -20 23 -6 12
-19 36 -30 52 -11 17 -25 41 -30 55 -6 13 -15 27 -19 30 -11 8 -81 150 -81
166 0 8 -4 14 -9 14 -17 0 -22 37 -10 64 7 14 9 29 4 34 -4 4 -10 1 -12 -5
-11 -30 -20 -9 -15 32 3 30 1 45 -7 45 -6 0 -11 8 -11 18 0 9 -6 29 -14 44 -8
14 -17 45 -21 68 -4 23 -13 54 -21 68 -8 15 -14 34 -14 43 0 9 -6 29 -14 43
-11 23 -11 36 1 89 8 34 18 82 22 107 4 25 15 57 24 70 10 15 17 43 17 73 0
45 1 47 21 37 20 -11 20 -10 13 47 l-7 58 23 -20 23 -20 -6 35 c-3 19 -7 44
-9 54 -4 27 19 31 27 5 7 -20 8 -21 17 -5 7 12 5 24 -6 40 -14 23 -12 66 4 66
5 0 10 -10 12 -22 4 -27 21 -27 26 -1 2 10 9 23 15 28 14 12 57 98 57 114 0 6
3 11 8 11 4 0 18 24 32 53 13 28 30 58 38 66 14 15 12 33 -5 38 -6 2 -13 -6
-15 -18 -2 -12 -9 -24 -15 -27 -18 -5 -16 33 2 48 8 7 15 21 15 32 0 10 7 21
15 24 8 4 15 14 15 24 0 10 7 25 15 34 8 8 15 19 15 24 0 5 7 15 15 22 8 7 15
21 15 32 0 10 7 21 15 24 8 4 15 11 15 16 0 27 144 236 224 327 72 81 166 168
266 245 36 28 83 68 105 88 22 20 81 64 130 97 50 33 126 85 170 116 44 30 85
55 91 55 7 0 14 7 18 15 3 8 15 15 27 15 12 0 28 8 35 18 12 16 14 16 43 -1
29 -17 51 -16 51 2 0 5 -10 11 -22 15 -36 10 -1 27 40 20 27 -5 31 -4 26 10
-5 14 -2 16 19 11 20 -5 29 -2 39 14 7 12 20 21 28 21 8 0 42 18 75 40 33 22
65 40 71 40 7 0 27 8 46 17 18 9 45 22 60 30 14 7 35 13 46 13 11 0 25 7 32
15 16 19 39 19 47 -1z m3760 -310 c-3 -3 -12 -4 -19 -1 -8 3 -5 6 6 6 11 1 17
-2 13 -5z m-1258 -88 c9 -11 9 -15 0 -18 -8 -3 3 -34 31 -91 42 -84 42 -87 26
-112 -9 -14 -23 -25 -30 -25 -26 0 -46 12 -46 27 0 20 -40 7 -58 -19 -16 -23
-24 -29 -80 -69 -26 -18 -49 -45 -58 -67 -9 -20 -22 -51 -30 -69 -8 -17 -14
-36 -14 -42 0 -6 -4 -19 -10 -29 -5 -9 -15 -28 -20 -42 -6 -14 -17 -36 -25
-50 -12 -20 -12 -27 -2 -35 25 -19 27 -45 5 -88 -32 -60 -104 -129 -168 -160
-72 -35 -81 -43 -109 -102 -13 -27 -43 -69 -67 -91 -30 -28 -44 -50 -44 -67 0
-14 -4 -29 -10 -32 -13 -8 -13 -40 0 -63 36 -66 44 -95 75 -277 14 -83 26
-124 69 -238 20 -52 26 -86 26 -145 0 -75 -1 -79 -32 -108 -39 -37 -100 -74
-120 -74 -8 0 -19 -5 -25 -11 -7 -7 -36 -21 -65 -32 -46 -17 -77 -19 -239 -18
-185 1 -188 1 -254 31 -37 16 -71 30 -75 30 -22 0 -91 57 -97 79 -3 15 -12 35
-19 46 -8 11 -14 32 -14 48 0 16 -7 55 -15 88 -14 51 -14 63 0 101 8 24 15 51
15 61 0 11 6 31 14 45 8 15 17 34 20 42 3 8 10 22 14 30 41 72 74 156 79 200
3 30 12 65 20 79 18 36 16 71 -7 106 -11 17 -20 37 -20 46 0 9 -10 24 -21 35
-12 10 -35 47 -51 81 -25 53 -70 103 -93 103 -6 0 -74 49 -133 96 -26 21 -32
33 -32 63 1 51 -10 112 -25 136 -7 11 -15 39 -19 61 -3 23 -14 61 -25 84 -28
63 -102 157 -136 174 -78 39 -113 106 -56 106 35 0 48 15 30 36 -20 24 5 43
28 21 130 -123 133 -128 133 -175 0 -27 9 -51 28 -78 32 -44 60 -110 88 -201
16 -52 24 -65 49 -75 17 -6 33 -13 38 -16 14 -7 7 36 -8 48 -21 18 -19 54 6
76 12 10 37 42 55 71 49 73 132 133 183 133 30 0 44 -5 53 -21 7 -11 36 -38
65 -59 30 -23 64 -61 80 -90 l28 -50 87 0 c100 0 118 5 118 32 0 20 156 177
189 189 38 15 90 -6 143 -57 29 -27 62 -61 73 -75 30 -37 81 -70 99 -63 15 6
62 83 145 237 23 43 57 91 74 107 24 22 29 32 21 40 -15 15 -54 -4 -54 -26 0
-25 -25 -10 -28 18 -2 20 10 36 63 81 37 32 74 57 84 57 9 0 26 7 37 15 24 18
29 18 43 1z m-1821 -81 c22 -19 52 -53 67 -75 23 -33 26 -44 18 -63 -11 -21
-11 -21 -19 -2 -9 22 -111 125 -124 125 -16 0 -22 21 -10 35 18 21 25 19 68
-20z m-150 -29 c4 -20 -16 -48 -29 -40 -11 6 -12 48 -2 58 11 10 28 1 31 -18z
m1009 -348 c-29 -23 -60 -22 -82 2 -17 19 -17 20 15 34 29 12 36 11 61 -3 l29
-16 -23 -17z m1579 -503 c4 -9 -9 -35 -32 -63 -21 -26 -39 -49 -41 -51 -2 -2
-20 2 -42 9 -21 7 -48 9 -59 6 -18 -6 -20 -10 -10 -26 7 -11 25 -22 40 -25 37
-8 44 -23 22 -40 -26 -20 -41 -18 -99 10 -44 22 -64 25 -158 25 -66 0 -117 -5
-130 -12 -12 -7 -44 -15 -72 -19 -53 -7 -93 -20 -161 -50 -23 -11 -46 -19 -52
-19 -6 0 -12 -3 -14 -8 -5 -12 -94 -82 -105 -82 -12 0 -96 -88 -112 -117 -18
-35 14 -93 52 -93 21 0 114 -91 210 -206 32 -38 69 -80 82 -94 12 -14 34 -42
47 -61 13 -19 40 -55 59 -80 20 -24 53 -69 74 -99 21 -30 42 -58 47 -61 10 -7
31 -40 47 -76 6 -13 15 -23 21 -23 5 0 10 -8 10 -19 0 -10 7 -24 15 -31 8 -7
15 -21 15 -31 0 -10 4 -20 9 -24 11 -6 61 -109 61 -124 0 -6 4 -11 9 -11 5 0
12 -13 16 -29 3 -16 13 -35 21 -42 8 -6 14 -17 14 -24 0 -8 6 -26 14 -42 17
-34 35 -86 46 -133 5 -19 14 -36 19 -38 6 -2 13 -20 17 -40 3 -20 12 -51 20
-69 8 -17 14 -45 14 -63 0 -38 15 -32 24 10 4 20 10 29 17 24 8 -5 9 -26 5
-68 -4 -33 -9 -74 -10 -91 -7 -67 -27 -138 -46 -162 -11 -14 -20 -31 -20 -37
0 -22 -45 -95 -72 -115 -19 -15 -48 -23 -101 -27 -93 -8 -120 3 -304 127 -77
53 -283 262 -283 289 0 10 -7 23 -15 30 -9 7 -15 29 -15 53 0 22 -6 63 -14 91
-82 294 -103 484 -65 583 14 34 3 108 -28 188 -8 22 -18 72 -23 110 -13 130
-44 220 -90 265 -50 49 -64 82 -65 145 0 54 4 65 35 105 19 25 38 48 42 51 4
3 47 43 95 90 93 89 144 129 165 129 7 0 22 7 32 15 11 8 36 15 55 15 20 1 47
7 61 15 14 8 36 14 50 15 14 0 37 6 51 14 14 7 42 16 62 20 21 4 41 15 47 26
6 11 19 20 29 20 12 0 18 7 17 17 -1 15 11 20 68 27 60 8 74 6 104 -10 42 -22
141 -26 166 -5 15 12 62 27 94 30 7 1 15 -6 18 -14z m-3136 -61 c0 -12 -5 -36
-11 -53 -8 -24 -8 -36 0 -44 8 -8 17 4 35 44 26 59 48 76 121 90 45 8 213 -9
233 -24 20 -16 14 -46 -10 -51 -13 -3 -32 -7 -43 -9 -11 -3 3 -5 32 -6 33 -1
53 3 55 11 6 17 117 -5 171 -33 21 -10 52 -19 70 -19 18 0 42 -7 53 -15 10 -8
29 -15 42 -15 48 0 172 -107 172 -148 0 -20 31 -52 68 -71 12 -6 22 -16 22
-22 0 -6 14 -28 32 -50 l32 -40 -32 -62 c-18 -34 -32 -68 -32 -76 0 -7 -13
-30 -30 -51 -17 -21 -30 -50 -30 -65 0 -15 -6 -41 -14 -58 -39 -92 -84 -382
-67 -432 19 -56 23 -110 12 -180 -24 -163 -34 -211 -47 -237 -8 -14 -14 -37
-14 -51 0 -14 -7 -38 -15 -53 -8 -16 -15 -50 -15 -76 0 -42 -16 -94 -41 -138
-5 -8 -14 -26 -19 -39 -14 -31 -329 -341 -347 -341 -7 0 -40 -13 -71 -29 -56
-28 -99 -36 -170 -33 -43 3 -129 82 -165 153 -37 69 -52 164 -38 229 6 28 11
71 11 95 0 29 11 70 31 112 16 38 36 82 43 98 30 72 46 105 91 195 103 205
127 250 136 255 5 4 9 13 9 21 0 15 10 29 42 62 19 20 27 54 13 59 -6 2 -19
-13 -30 -34 -11 -20 -35 -51 -52 -70 -18 -18 -33 -37 -33 -42 0 -4 -12 -26
-27 -47 -16 -22 -35 -55 -45 -74 -64 -136 -94 -192 -105 -202 -7 -6 -13 -19
-13 -29 0 -18 -18 -66 -46 -122 -8 -16 -14 -41 -14 -57 0 -15 -7 -33 -15 -40
-9 -7 -15 -30 -16 -54 0 -22 -3 -59 -7 -81 -6 -31 -10 -37 -17 -25 -13 20 -11
186 2 202 6 7 14 33 18 58 9 65 60 178 83 187 6 3 12 10 12 15 0 17 44 108 52
108 5 0 8 5 8 11 0 13 50 97 126 215 39 59 69 91 112 122 33 23 66 52 75 64 8
13 23 32 34 43 10 11 38 45 62 75 23 30 116 129 205 220 176 178 196 202 196
237 0 27 -35 85 -80 134 -17 19 -34 45 -36 59 -8 34 -49 63 -104 71 -25 4 -76
16 -115 27 -103 29 -218 36 -282 17 -28 -8 -72 -20 -97 -25 -25 -6 -67 -15
-93 -20 -25 -6 -54 -16 -62 -24 -11 -9 -23 -11 -38 -5 -21 8 -22 10 -8 44 13
30 13 35 1 35 -15 0 -39 32 -51 70 -4 13 -14 30 -21 38 -21 20 -17 42 9 51 30
12 97 -26 97 -55z m-1803 -118 c-4 -9 -11 -16 -17 -16 -11 0 -14 33 -3 44 11
10 26 -11 20 -28z m-37 -56 c0 -11 -4 -20 -10 -20 -5 0 -10 9 -10 20 0 11 5
20 10 20 6 0 10 -9 10 -20z m-30 -60 c0 -11 -4 -20 -10 -20 -5 0 -10 9 -10 20
0 11 5 20 10 20 6 0 10 -9 10 -20z m-30 -60 c0 -11 -4 -20 -10 -20 -5 0 -10 9
-10 20 0 11 5 20 10 20 6 0 10 -9 10 -20z m-601 -197 c-1 -41 -2 -44 -8 -18
-7 28 -4 65 5 65 2 0 3 -21 3 -47z m5071 -347 c0 -4 15 -22 33 -40 31 -29 166
-205 194 -251 6 -11 28 -51 47 -90 20 -38 51 -94 71 -123 19 -30 35 -60 35
-67 0 -7 7 -18 15 -25 8 -7 15 -20 15 -30 0 -9 11 -37 25 -61 14 -24 27 -51
30 -59 3 -8 13 -28 21 -44 21 -41 29 -137 14 -165 -21 -40 -32 -15 -59 124 -4
22 -12 49 -18 60 -24 45 -53 113 -53 124 0 6 -4 11 -9 11 -5 0 -12 13 -16 30
-4 16 -10 32 -15 35 -8 5 -37 62 -54 105 -4 8 -15 29 -26 45 -11 17 -24 39
-30 50 -6 11 -18 32 -28 47 -9 14 -30 48 -46 75 -16 26 -32 50 -36 53 -4 3
-19 25 -33 50 -14 25 -35 55 -47 67 -11 12 -20 26 -20 30 0 4 -16 19 -34 33
-38 28 -70 75 -61 89 5 10 85 -59 85 -73z m-1520 -213 c19 -18 50 -41 69 -51
54 -27 58 -43 22 -82 -17 -19 -31 -39 -31 -44 0 -15 -42 -56 -58 -56 -10 0
-12 8 -7 29 8 37 -8 48 -40 27 -13 -9 -28 -16 -33 -16 -8 0 -28 93 -24 113 1
4 4 25 6 47 4 43 31 84 50 73 6 -3 27 -21 46 -40z m1000 -23 c7 -25 14 -74 14
-110 l1 -65 -50 -8 c-50 -8 -51 -8 -100 38 -40 36 -56 45 -80 43 -16 -2 -32 2
-34 7 -6 13 66 62 104 71 16 4 50 24 74 46 25 21 48 35 51 31 4 -5 13 -28 20
-53z m-777 -127 c-7 -2 -19 -2 -25 0 -7 3 -2 5 12 5 14 0 19 -2 13 -5z m4284
-25 c-3 -7 -5 -2 -5 12 0 14 2 19 5 13 2 -7 2 -19 0 -25z m-3955 -18 c31 -6
82 -24 112 -40 31 -17 66 -30 79 -30 56 0 172 -191 191 -315 14 -88 -2 -417
-21 -437 -7 -6 -13 -30 -13 -53 0 -38 -56 -220 -82 -268 -75 -135 -118 -180
-223 -231 -82 -40 -110 -43 -203 -21 -134 32 -205 92 -285 240 -23 43 -57 122
-57 133 0 5 -7 23 -15 38 -8 16 -15 51 -15 77 0 26 -6 60 -14 75 -20 39 -42
430 -27 473 6 18 11 44 11 59 0 15 7 33 15 40 8 7 15 23 15 35 0 12 7 28 15
35 8 7 15 18 15 25 0 19 41 58 80 76 19 9 65 31 101 48 36 18 79 36 95 41 41
12 160 12 226 0z m3925 -92 c-2 -13 -4 -5 -4 17 -1 22 1 32 4 23 2 -10 2 -28
0 -40z m-3497 12 c0 -5 -5 -10 -11 -10 -5 0 -7 5 -4 10 3 6 8 10 11 10 2 0 4
-4 4 -10z m-4533 -67 c-3 -10 -5 -2 -5 17 0 19 2 27 5 18 2 -10 2 -26 0 -35z
m43 -100 c0 -27 -16 -38 -24 -17 -9 23 4 70 15 52 5 -7 9 -23 9 -35z m3433
-220 c2 -16 5 -110 7 -210 2 -151 -1 -190 -15 -230 -24 -66 -87 -193 -96 -193
-4 0 -12 -12 -18 -27 -6 -16 -22 -46 -36 -68 -13 -22 -24 -46 -25 -54 0 -8 -6
-22 -14 -30 -7 -9 -23 -43 -35 -76 -13 -33 -32 -70 -43 -82 -28 -30 -75 -30
-119 0 -29 19 -34 29 -37 68 -3 50 -8 42 233 366 115 155 112 146 93 281 -8
62 -8 89 0 108 7 13 15 56 18 95 7 67 8 70 30 65 12 -3 26 -2 29 4 11 18 23
10 28 -17z m1139 0 c10 -9 18 -30 18 -47 0 -17 5 -49 10 -71 6 -28 5 -69 -5
-135 -17 -111 -9 -151 39 -215 17 -22 33 -42 36 -45 4 -3 24 -28 46 -55 21
-28 56 -69 77 -92 21 -23 49 -56 62 -75 14 -18 28 -37 32 -43 24 -29 53 -85
53 -101 0 -21 -36 -85 -54 -96 -27 -18 -63 -7 -98 30 -19 20 -38 44 -42 52 -3
8 -15 29 -26 45 -11 17 -26 44 -34 60 -26 51 -60 108 -95 160 -19 28 -47 74
-63 104 -27 52 -28 60 -28 197 0 169 5 204 31 204 13 0 19 7 19 22 0 20 -1 20
-19 4 -17 -16 -18 -15 -25 30 -5 40 -3 48 17 65 27 23 26 23 49 2z m-3547
-1363 c3 -5 1 -10 -4 -10 -6 0 -11 5 -11 10 0 6 2 10 4 10 3 0 8 -4 11 -10z"/>
<path d="M14050 12686 c0 -9 5 -16 10 -16 6 0 10 4 10 9 0 6 -4 13 -10 16 -5
3 -10 -1 -10 -9z"/>
<path d="M14080 12650 c0 -5 5 -10 10 -10 6 0 10 5 10 10 0 6 -4 10 -10 10 -5
0 -10 -4 -10 -10z"/>
<path d="M14110 12620 c0 -5 5 -10 10 -10 6 0 10 5 10 10 0 6 -4 10 -10 10 -5
0 -10 -4 -10 -10z"/>
<path d="M14365 12340 c-3 -5 -1 -10 4 -10 6 0 11 5 11 10 0 6 -2 10 -4 10 -3
0 -8 -4 -11 -10z"/>
<path d="M14390 12311 c0 -6 5 -13 10 -16 6 -3 10 1 10 9 0 9 -4 16 -10 16 -5
0 -10 -4 -10 -9z"/>
<path d="M14426 12282 c-7 -12 13 -44 45 -72 3 -3 8 -13 12 -22 7 -21 27 -24
27 -5 -1 15 -46 67 -59 67 -5 0 -11 10 -13 23 -2 16 -5 19 -12 9z"/>
<path d="M14514 12159 c-4 -7 0 -17 8 -23 8 -6 19 -22 23 -36 4 -14 10 -27 14
-30 13 -11 51 -70 51 -80 0 -5 6 -10 14 -10 8 0 16 -11 18 -25 3 -29 21 -38
26 -14 1 8 -6 26 -18 39 -11 12 -20 27 -20 32 0 10 -16 31 -42 56 -10 9 -18
25 -18 35 0 9 -7 20 -15 23 -8 4 -15 12 -15 19 0 19 -17 28 -26 14z"/>
<path d="M14672 11906 c1 -10 8 -17 13 -17 15 1 12 24 -3 29 -9 3 -13 -2 -10
-12z"/>
<path d="M14740 10161 c0 -12 5 -21 10 -21 6 0 10 6 10 14 0 8 -4 18 -10 21
-5 3 -10 -3 -10 -14z"/>
<path d="M14704 10105 c-3 -14 -10 -25 -15 -25 -5 0 -14 -11 -19 -25 -5 -14
-14 -25 -20 -25 -5 0 -10 -9 -10 -19 0 -11 -4 -22 -9 -25 -5 -4 -19 -27 -32
-54 -12 -26 -26 -49 -30 -52 -4 -3 -20 -23 -35 -45 -14 -22 -33 -44 -40 -48
-8 -4 -14 -15 -14 -22 0 -8 -4 -15 -9 -15 -5 0 -13 -10 -17 -22 -4 -13 -14
-28 -23 -35 -9 -6 -13 -15 -9 -19 14 -13 97 81 114 129 3 9 11 17 16 17 5 0
14 14 19 30 6 17 15 30 20 30 5 0 9 6 9 13 0 7 9 20 20 30 11 9 20 23 20 31 0
8 7 16 15 20 8 3 15 14 15 24 0 11 7 25 15 32 8 7 15 21 15 31 0 11 7 19 15
19 8 0 15 9 15 19 0 30 -19 35 -26 6z"/>
<path d="M14395 9659 c-10 -15 3 -25 16 -12 7 7 7 13 1 17 -6 3 -14 1 -17 -5z"/>
<path d="M14360 9615 c0 -8 -5 -15 -11 -15 -6 0 -21 -12 -33 -27 -32 -41 -127
-143 -163 -177 -32 -29 -41 -46 -24 -46 12 0 61 47 61 60 0 5 5 10 12 10 16 0
145 136 153 161 4 10 11 19 16 19 5 0 9 7 9 15 0 8 -4 15 -10 15 -5 0 -10 -7
-10 -15z"/>
<path d="M14058 9303 c7 -3 16 -2 19 1 4 3 -2 6 -13 5 -11 0 -14 -3 -6 -6z"/>
<path d="M14020 9270 c0 -5 4 -10 9 -10 6 0 13 5 16 10 3 6 -1 10 -9 10 -9 0
-16 -4 -16 -10z"/>
<path d="M13985 9240 c4 -6 11 -8 16 -5 14 9 11 15 -7 15 -8 0 -12 -5 -9 -10z"/>
<path d="M13950 9210 c0 -5 4 -10 9 -10 6 0 13 5 16 10 3 6 -1 10 -9 10 -9 0
-16 -4 -16 -10z"/>
<path d="M13920 9193 c-8 -3 -19 -12 -23 -19 -4 -8 -15 -14 -22 -14 -8 0 -15
-3 -15 -8 0 -4 -16 -16 -35 -26 -19 -11 -49 -32 -66 -47 -17 -15 -50 -41 -73
-56 -22 -15 -47 -34 -54 -40 -7 -7 -18 -13 -23 -13 -5 0 -9 -4 -9 -10 0 -5 9
-10 20 -10 11 0 20 4 20 9 0 5 10 13 23 17 22 7 178 122 238 177 10 9 24 17
29 17 6 0 10 7 10 15 0 8 -1 15 -2 14 -2 0 -10 -3 -18 -6z"/>
<path d="M13550 8930 c0 -5 6 -10 14 -10 8 0 18 5 21 10 3 6 -3 10 -14 10 -12
0 -21 -4 -21 -10z"/>
<path d="M13200 8740 c0 -5 6 -10 14 -10 8 0 18 5 21 10 3 6 -3 10 -14 10 -12
0 -21 -4 -21 -10z"/>
<path d="M13150 8710 c0 -5 5 -10 11 -10 5 0 7 5 4 10 -3 6 -8 10 -11 10 -2 0
-4 -4 -4 -10z"/>
<path d="M9380 13030 c0 -6 -10 -15 -22 -21 -46 -20 -114 -66 -153 -101 -16
-15 -35 -28 -41 -28 -5 0 -23 -13 -40 -28 -16 -16 -51 -44 -79 -62 -27 -19
-70 -53 -94 -77 -37 -36 -41 -43 -23 -43 11 0 22 3 24 8 2 4 22 20 45 36 24
16 53 39 65 51 13 12 68 53 123 90 55 37 102 70 105 74 10 13 70 51 80 51 5 0
10 5 10 10 0 6 11 15 25 22 13 6 22 15 19 19 -7 13 -44 11 -44 -1z"/>
<path d="M8873 12647 c-4 -8 -16 -16 -25 -20 -10 -3 -18 -11 -18 -16 0 -14 33
-1 43 16 4 7 15 13 22 13 8 0 15 5 15 10 0 15 -28 12 -37 -3z"/>
<path d="M8768 12553 c7 -3 16 -2 19 1 4 3 -2 6 -13 5 -11 0 -14 -3 -6 -6z"/>
<path d="M8680 12491 c0 -5 9 -7 20 -4 11 3 20 7 20 9 0 2 -9 4 -20 4 -11 0
-20 -4 -20 -9z"/>
<path d="M8640 12455 c0 -8 -7 -15 -15 -15 -8 0 -15 -7 -15 -15 0 -8 -4 -15
-8 -15 -4 0 -24 -21 -44 -47 -20 -27 -53 -66 -72 -88 -20 -22 -36 -46 -36 -53
0 -7 -7 -15 -15 -18 -8 -4 -15 -12 -15 -20 0 -8 -4 -14 -9 -14 -10 0 -91 -133
-91 -149 0 -6 -4 -11 -10 -11 -5 0 -13 -12 -16 -27 -4 -16 -14 -33 -22 -39
-10 -7 -13 -18 -8 -30 8 -18 9 -17 19 6 6 14 17 29 24 33 7 4 13 13 13 18 0 6
16 31 35 56 19 25 35 51 35 58 0 7 6 15 13 18 7 2 21 22 32 42 11 21 31 50 44
64 13 14 27 35 32 46 14 32 33 59 47 68 6 4 12 12 12 17 0 5 22 33 50 62 53
56 59 68 35 68 -8 0 -15 -7 -15 -15z"/>
<path d="M8234 11885 c-7 -17 4 -37 17 -30 12 8 12 45 -1 45 -6 0 -13 -7 -16
-15z"/>
<path d="M8022 10490 c0 -14 2 -19 5 -12 2 6 2 18 0 25 -3 6 -5 1 -5 -13z"/>
<path d="M8050 10430 c0 -19 3 -21 12 -12 9 9 9 15 0 24 -9 9 -12 7 -12 -12z"/>
<path d="M8743 10370 c0 -25 2 -35 4 -22 2 12 2 32 0 45 -2 12 -4 2 -4 -23z"/>
<path d="M8080 10370 c0 -19 3 -21 12 -12 9 9 9 15 0 24 -9 9 -12 7 -12 -12z"/>
<path d="M8110 10315 c0 -8 5 -15 10 -15 6 0 10 7 10 15 0 8 -4 15 -10 15 -5
0 -10 -7 -10 -15z"/>
<path d="M8770 10277 c0 -23 4 -36 10 -32 13 8 13 35 0 55 -7 11 -10 5 -10
-23z"/>
<path d="M8140 10270 c0 -11 7 -23 15 -26 8 -4 15 -15 15 -25 0 -10 7 -19 15
-19 8 0 15 -8 15 -19 0 -10 7 -24 15 -31 8 -7 15 -19 15 -26 0 -8 7 -14 15
-14 8 0 15 6 15 14 0 8 -7 21 -15 30 -8 8 -15 18 -15 22 0 4 -7 14 -15 23 -8
9 -23 26 -35 39 -11 12 -20 29 -20 37 0 8 -4 15 -10 15 -5 0 -10 -9 -10 -20z"/>
<path d="M8800 10179 c0 -11 5 -17 10 -14 6 3 10 13 10 21 0 8 -4 14 -10 14
-5 0 -10 -9 -10 -21z"/>
<path d="M8266 10101 c-8 -12 35 -80 51 -81 15 0 4 40 -13 47 -8 3 -14 11 -14
18 0 18 -17 28 -24 16z"/>
<path d="M8330 9996 c0 -9 5 -16 10 -16 6 0 10 4 10 9 0 6 -4 13 -10 16 -5 3
-10 -1 -10 -9z"/>
<path d="M8360 9951 c0 -11 5 -23 10 -26 6 -4 10 5 10 19 0 14 -4 26 -10 26
-5 0 -10 -9 -10 -19z"/>
<path d="M8390 9905 c0 -8 5 -15 10 -15 6 0 10 7 10 15 0 8 -4 15 -10 15 -5 0
-10 -7 -10 -15z"/>
<path d="M8420 9871 c0 -5 6 -16 13 -23 7 -7 18 -22 25 -33 11 -19 11 -19 12
2 0 13 -8 32 -17 43 -19 21 -33 26 -33 11z"/>
<path d="M8890 9306 c0 -9 7 -16 15 -16 8 0 15 -7 15 -15 0 -8 6 -15 14 -15 8
0 16 -7 20 -15 3 -8 11 -15 17 -15 7 0 20 -7 30 -16 10 -9 24 -14 31 -11 8 4
5 8 -9 12 -13 4 -23 12 -23 19 -1 11 -80 77 -100 84 -6 2 -10 -3 -10 -12z"/>
<path d="M9045 9180 c3 -5 10 -10 16 -10 5 0 9 5 9 10 0 6 -7 10 -16 10 -8 0
-12 -4 -9 -10z"/>
<path d="M9080 9155 c0 -9 52 -55 62 -55 10 0 31 -16 56 -42 9 -10 24 -18 33
-18 9 0 22 -7 29 -15 14 -17 40 -20 40 -5 0 6 -7 13 -16 17 -9 3 -30 19 -47
34 -17 16 -39 29 -49 29 -10 0 -18 4 -18 9 0 5 -15 19 -34 30 -32 20 -56 27
-56 16z"/>
<path d="M9318 8993 c7 -3 16 -2 19 1 4 3 -2 6 -13 5 -11 0 -14 -3 -6 -6z"/>
<path d="M9365 8960 c4 -6 11 -8 16 -5 14 9 11 15 -7 15 -8 0 -12 -5 -9 -10z"/>
<path d="M9738 8773 c7 -3 16 -2 19 1 4 3 -2 6 -13 5 -11 0 -14 -3 -6 -6z"/>
<path d="M9865 8710 c3 -5 8 -10 11 -10 2 0 4 5 4 10 0 6 -5 10 -11 10 -5 0
-7 -4 -4 -10z"/>
<path d="M12390 12825 c-10 -12 -10 -18 1 -32 8 -9 14 -25 14 -37 0 -15 9 -22
33 -27 37 -8 39 -3 16 64 -17 50 -40 61 -64 32z"/>
<path d="M11791 12493 c-13 -10 -40 -33 -60 -52 -20 -18 -53 -48 -74 -67 -33
-30 -36 -37 -26 -56 7 -12 29 -38 51 -57 21 -19 51 -55 67 -80 16 -26 38 -56
50 -68 22 -24 22 -43 -1 -158 -12 -57 -17 -65 -108 -155 -83 -83 -102 -97
-153 -113 -74 -22 -99 -21 -145 3 -51 27 -185 157 -211 205 -11 22 -21 55 -21
74 0 19 -5 49 -12 67 -10 30 -9 37 18 76 16 24 35 55 42 70 8 15 45 55 84 89
l69 62 -43 45 c-73 76 -116 102 -165 102 -28 0 -48 -6 -58 -17 -57 -65 -75
-89 -75 -97 0 -11 8 -36 50 -161 19 -58 26 -93 20 -99 -7 -7 -10 -6 -10 2 0
14 -87 59 -96 50 -3 -4 8 -20 25 -37 17 -17 34 -45 38 -61 3 -17 19 -44 34
-60 17 -17 29 -39 29 -55 0 -14 9 -43 19 -63 25 -49 179 -208 211 -217 14 -4
34 -14 45 -21 30 -21 162 -18 202 4 33 17 117 95 189 175 37 41 74 114 74 146
0 19 31 83 49 103 34 36 43 49 38 54 -9 10 -46 -16 -52 -36 -8 -24 -25 -17
-25 9 0 22 50 117 91 173 40 56 39 97 -6 155 -33 43 -90 83 -118 83 -7 0 -24
-8 -36 -17z"/>
<path d="M12050 12285 c0 -8 5 -15 10 -15 6 0 10 7 10 15 0 8 -4 15 -10 15 -5
0 -10 -7 -10 -15z"/>
<path d="M12087 12179 c-16 -17 -33 -41 -39 -55 -6 -13 -15 -24 -20 -24 -4 0
-8 -7 -8 -16 0 -13 4 -13 31 3 33 19 79 82 79 108 0 22 -12 18 -43 -16z"/>
<path d="M10822 12163 c2 -10 11 -19 21 -21 16 -3 17 -1 7 17 -13 25 -33 28
-28 4z"/>
<path d="M10988 12053 c7 -3 16 -2 19 1 4 3 -2 6 -13 5 -11 0 -14 -3 -6 -6z"/>
<path d="M11988 12053 c7 -3 16 -2 19 1 4 3 -2 6 -13 5 -11 0 -14 -3 -6 -6z"/>
<path d="M12798 11863 c7 -3 16 -2 19 1 4 3 -2 6 -13 5 -11 0 -14 -3 -6 -6z"/>
<path d="M10301 10804 c0 -11 3 -14 6 -6 3 7 2 16 -1 19 -3 4 -6 -2 -5 -13z"/>
<path d="M14766 12825 c4 -8 8 -15 10 -15 2 0 4 7 4 15 0 8 -4 15 -10 15 -5 0
-7 -7 -4 -15z"/>
<path d="M7622 11920 c0 -14 2 -19 5 -12 2 6 2 18 0 25 -3 6 -5 1 -5 -13z"/>
<path d="M7580 11856 c0 -8 5 -18 10 -21 6 -3 10 3 10 14 0 12 -4 21 -10 21
-5 0 -10 -6 -10 -14z"/>
<path d="M7551 11794 c0 -11 3 -14 6 -6 3 7 2 16 -1 19 -3 4 -6 -2 -5 -13z"/>
<path d="M7491 11634 c0 -11 3 -14 6 -6 3 7 2 16 -1 19 -3 4 -6 -2 -5 -13z"/>
<path d="M7550 10160 c0 -16 5 -30 10 -30 6 0 10 14 10 30 0 17 -4 30 -10 30
-5 0 -10 -13 -10 -30z"/>
<path d="M7580 10086 c0 -8 5 -18 10 -21 6 -3 10 3 10 14 0 12 -4 21 -10 21
-5 0 -10 -6 -10 -14z"/>
<path d="M7610 10025 c0 -8 5 -15 10 -15 6 0 10 7 10 15 0 8 -4 15 -10 15 -5
0 -10 -7 -10 -15z"/>
<path d="M8425 8870 c4 -6 11 -8 16 -5 14 9 11 15 -7 15 -8 0 -12 -5 -9 -10z"/>
<path d="M11585 4809 c-33 -5 -107 -13 -165 -18 -58 -4 -118 -13 -133 -20 -16
-6 -46 -11 -68 -11 -22 0 -56 -7 -76 -15 -19 -8 -47 -15 -62 -15 -14 0 -39 -7
-55 -15 -15 -8 -36 -15 -45 -15 -9 0 -28 -6 -42 -14 -14 -7 -39 -16 -55 -20
-16 -4 -44 -13 -61 -22 -18 -8 -50 -22 -70 -31 -21 -9 -45 -20 -53 -25 -8 -4
-22 -11 -30 -14 -50 -21 -101 -47 -106 -55 -3 -5 -14 -9 -25 -9 -11 0 -22 -7
-25 -15 -4 -8 -11 -15 -18 -15 -13 0 -124 -75 -241 -164 -96 -72 -342 -319
-389 -390 -19 -28 -43 -60 -55 -70 -12 -11 -21 -23 -21 -29 0 -5 -13 -26 -28
-46 -16 -20 -32 -43 -35 -51 -4 -8 -16 -28 -27 -45 -11 -16 -25 -41 -30 -55
-6 -13 -14 -27 -18 -30 -7 -5 -13 -18 -77 -155 -52 -111 -74 -167 -95 -240 -4
-16 -13 -43 -18 -60 -17 -49 -33 -116 -43 -178 -5 -32 -13 -67 -19 -77 -5 -10
-10 -41 -10 -68 0 -26 -7 -89 -15 -138 -28 -163 -10 -576 31 -718 8 -26 14
-65 14 -85 1 -20 7 -47 15 -61 8 -14 15 -38 15 -55 0 -16 7 -41 15 -55 8 -14
15 -36 15 -50 0 -14 7 -34 15 -44 8 -11 15 -28 15 -39 0 -10 6 -31 13 -45 8
-15 21 -43 30 -62 25 -56 67 -143 77 -162 6 -10 14 -26 19 -35 39 -72 56 -100
117 -189 93 -137 171 -232 276 -336 88 -86 291 -248 358 -285 19 -10 53 -30
75 -44 44 -29 60 -37 167 -91 41 -21 81 -38 90 -38 8 0 21 -7 28 -15 7 -8 23
-15 35 -15 12 0 28 -7 35 -15 7 -8 22 -15 34 -15 11 0 34 -7 50 -15 15 -8 35
-15 43 -15 8 0 29 -6 46 -14 32 -14 84 -28 182 -48 28 -5 64 -14 81 -19 17 -5
73 -14 125 -19 52 -6 121 -15 154 -20 81 -11 418 -11 480 1 28 5 86 14 130 18
44 5 94 14 110 19 17 6 53 16 80 22 28 6 70 15 95 21 25 5 57 16 72 24 14 8
35 15 45 15 11 0 28 7 39 15 10 8 29 15 40 15 12 0 27 7 34 15 7 8 20 15 30
15 19 0 324 153 340 171 3 3 23 16 45 29 88 53 316 235 420 335 l110 107 5
860 c3 569 2 862 -5 864 -5 2 -437 3 -960 2 l-950 -3 -3 -378 c-2 -355 -1
-379 15 -383 10 -3 241 -6 513 -7 l495 -2 3 -312 2 -311 -38 -30 c-47 -37
-219 -132 -241 -132 -9 0 -25 -7 -35 -15 -11 -8 -29 -15 -41 -15 -12 0 -30 -7
-41 -15 -10 -8 -30 -15 -44 -15 -14 0 -38 -7 -54 -15 -15 -8 -41 -15 -57 -15
-16 0 -46 -6 -66 -14 -21 -8 -121 -22 -223 -30 -163 -14 -195 -14 -265 -1 -44
8 -97 14 -118 15 -21 0 -47 5 -58 11 -11 6 -41 14 -67 19 -52 9 -103 25 -144
46 -14 8 -33 14 -41 14 -8 0 -20 7 -27 15 -7 8 -21 15 -31 15 -9 0 -24 6 -31
13 -7 6 -34 23 -59 36 -25 13 -63 36 -85 52 -21 15 -61 44 -89 63 -65 46 -221
205 -271 276 -76 109 -124 184 -124 196 0 6 -7 17 -15 24 -8 7 -15 20 -15 30
0 10 -7 23 -15 30 -8 7 -15 22 -15 34 0 12 -6 30 -14 41 -7 11 -17 39 -21 62
-4 24 -11 45 -15 48 -5 3 -12 27 -16 53 -3 26 -11 56 -16 66 -6 10 -14 53 -18
95 -5 42 -14 123 -20 179 -10 82 -10 124 0 200 6 54 16 129 20 168 5 40 13 81
19 92 6 12 11 31 11 44 1 13 9 41 20 63 11 22 19 48 20 57 0 9 8 31 17 50 9
18 22 45 30 60 7 14 13 33 13 41 0 8 7 20 15 27 8 7 15 18 15 26 0 7 31 60 69
116 109 161 289 333 446 425 43 25 224 113 234 113 5 0 22 5 38 12 38 15 123
36 203 49 100 16 440 6 520 -15 137 -37 176 -49 202 -62 14 -8 35 -14 46 -14
11 0 25 -7 32 -15 7 -8 17 -15 23 -15 15 0 96 -40 103 -51 3 -5 12 -9 19 -9
13 0 66 -34 175 -110 54 -38 192 -178 240 -243 42 -56 43 -57 64 -40 44 37
202 180 247 223 47 46 236 222 322 300 76 69 76 68 0 152 -162 178 -337 339
-453 418 -12 8 -40 28 -62 44 -63 46 -335 185 -364 186 -5 1 -27 9 -49 20 -22
11 -49 20 -60 20 -11 0 -31 7 -45 15 -14 8 -37 14 -51 15 -15 0 -40 7 -55 15
-16 8 -46 15 -67 15 -21 0 -48 5 -60 12 -12 6 -60 15 -107 19 -47 5 -125 13
-175 18 -105 12 -245 12 -330 0z"/>
<path d="M16590 4805 c-47 -7 -110 -14 -141 -14 -31 -1 -76 -8 -99 -16 -23 -8
-57 -15 -74 -15 -17 0 -51 -6 -76 -14 -25 -8 -68 -21 -96 -30 -29 -9 -57 -16
-64 -16 -7 0 -26 -6 -43 -14 -18 -7 -59 -23 -92 -35 -111 -42 -335 -151 -335
-163 0 -4 -5 -8 -12 -8 -20 0 -190 -117 -288 -198 -92 -76 -314 -306 -370
-383 -84 -117 -192 -287 -220 -349 -4 -8 -21 -44 -38 -80 -56 -118 -72 -159
-72 -178 0 -11 -7 -25 -15 -32 -8 -7 -15 -23 -15 -35 0 -13 -7 -36 -15 -51 -8
-16 -15 -40 -15 -54 -1 -14 -7 -36 -15 -50 -8 -14 -14 -41 -15 -61 0 -20 -7
-53 -15 -72 -8 -20 -15 -56 -15 -79 -1 -24 -7 -72 -15 -108 -21 -94 -21 -547
0 -627 8 -31 15 -79 15 -105 0 -27 7 -65 15 -85 8 -19 15 -48 15 -63 0 -15 7
-44 15 -63 8 -20 15 -49 15 -65 0 -15 7 -37 15 -48 8 -10 15 -31 15 -45 0 -14
7 -34 15 -45 8 -10 15 -25 15 -32 0 -7 9 -34 21 -60 11 -26 27 -63 36 -82 25
-58 83 -173 104 -205 10 -16 23 -39 29 -50 6 -11 18 -32 28 -46 47 -70 77
-114 82 -119 3 -3 30 -36 60 -75 169 -218 498 -485 730 -592 25 -12 77 -35
115 -53 39 -17 83 -38 98 -46 16 -8 36 -14 46 -14 9 0 26 -7 37 -15 10 -8 30
-15 44 -15 14 0 37 -6 52 -14 14 -8 46 -17 70 -21 24 -4 48 -12 55 -17 6 -5
38 -12 70 -15 32 -3 67 -10 78 -16 10 -5 62 -13 115 -18 52 -4 140 -12 196
-18 98 -11 141 -9 439 18 50 4 106 13 125 19 19 6 58 15 85 20 99 20 281 74
365 110 19 8 51 21 70 29 19 9 42 19 50 24 8 5 22 12 30 15 8 3 29 12 45 21
281 145 560 364 718 563 29 36 60 74 71 85 10 11 45 61 77 110 32 50 62 95 66
101 30 40 143 266 143 285 0 9 7 22 15 29 8 7 15 21 15 30 0 10 6 31 14 47 18
36 36 88 46 133 4 19 13 49 18 65 19 54 33 119 43 189 5 38 14 76 19 85 5 9
14 100 20 201 9 143 9 226 0 370 -7 102 -16 193 -21 202 -5 9 -12 45 -16 80
-3 35 -12 75 -19 90 -8 15 -14 42 -14 60 -1 18 -7 44 -15 58 -8 14 -14 37 -15
51 0 14 -7 34 -15 45 -8 10 -15 31 -15 45 0 15 -7 32 -15 39 -8 7 -15 21 -15
32 0 11 -6 32 -14 46 -7 15 -37 77 -67 137 -30 61 -58 115 -62 120 -4 6 -36
53 -70 105 -81 124 -104 156 -148 205 -21 22 -55 63 -77 90 -56 71 -246 246
-331 305 -19 14 -45 33 -56 43 -11 10 -40 30 -65 44 -25 14 -47 30 -50 34 -3
4 -17 13 -30 19 -14 5 -45 22 -70 36 -54 31 -153 81 -198 100 -18 7 -47 20
-65 28 -28 13 -148 53 -307 102 -25 8 -61 14 -81 14 -20 0 -53 7 -72 15 -20 8
-62 15 -94 15 -32 0 -101 7 -153 15 -113 17 -234 17 -350 0z m295 -865 c28 -5
86 -14 130 -20 44 -7 85 -16 90 -20 6 -4 27 -11 49 -14 21 -4 54 -14 75 -23
20 -9 50 -22 66 -29 280 -119 495 -299 650 -544 38 -60 125 -232 125 -248 0
-6 9 -29 20 -49 11 -21 20 -45 20 -54 0 -9 7 -30 15 -45 8 -16 15 -44 15 -62
0 -18 5 -43 11 -54 15 -28 33 -211 34 -333 0 -126 -20 -324 -34 -338 -6 -6
-11 -27 -11 -46 -1 -20 -7 -47 -15 -61 -8 -14 -14 -33 -15 -43 0 -16 -17 -59
-50 -132 -5 -11 -14 -31 -20 -45 -5 -14 -14 -32 -19 -40 -5 -8 -12 -22 -15
-30 -4 -8 -14 -27 -24 -42 -9 -14 -30 -48 -46 -75 -16 -26 -32 -50 -35 -53 -3
-3 -32 -38 -65 -78 -68 -86 -128 -148 -182 -188 -22 -16 -59 -45 -84 -64 -52
-41 -73 -55 -115 -75 -16 -9 -37 -19 -45 -24 -8 -5 -22 -12 -30 -15 -8 -3 -22
-10 -30 -15 -48 -27 -80 -41 -97 -41 -10 0 -24 -5 -30 -11 -6 -6 -29 -15 -50
-19 -21 -5 -51 -13 -68 -18 -77 -26 -165 -36 -344 -40 -158 -2 -202 0 -233 13
-21 8 -57 15 -81 15 -23 0 -51 7 -61 15 -11 8 -31 15 -45 15 -14 0 -35 7 -45
15 -11 8 -27 15 -35 15 -18 0 -147 62 -216 104 -83 50 -195 136 -256 195 -65
65 -207 250 -238 313 -12 24 -26 50 -31 58 -5 8 -11 22 -14 30 -3 8 -10 22
-14 30 -25 44 -42 83 -42 95 0 8 -6 29 -14 47 -48 115 -85 343 -85 533 0 183
41 430 85 517 8 14 14 33 14 41 0 9 7 28 14 44 8 15 30 60 48 98 19 39 52 97
73 129 22 33 46 70 53 83 7 13 65 77 128 142 99 103 172 164 282 233 45 28
227 118 239 118 7 0 27 6 45 14 94 39 185 58 353 76 98 10 143 10 200 0z"/>
<path d="M21125 4809 c-27 -5 -86 -13 -130 -17 -44 -5 -90 -14 -102 -20 -12
-7 -37 -12 -55 -12 -18 -1 -44 -7 -58 -15 -14 -8 -34 -14 -45 -15 -11 0 -33
-7 -49 -15 -15 -8 -33 -15 -39 -15 -11 0 -209 -97 -252 -123 -59 -36 -189
-140 -251 -202 -102 -100 -191 -222 -225 -307 -6 -16 -15 -28 -19 -28 -5 0
-11 -13 -15 -30 -4 -16 -11 -32 -16 -35 -5 -4 -9 -13 -9 -22 0 -8 -6 -29 -14
-46 -24 -55 -56 -162 -56 -188 0 -13 -7 -46 -15 -73 -21 -69 -21 -353 0 -422
8 -27 15 -62 15 -79 0 -16 7 -43 15 -59 8 -15 15 -36 15 -45 0 -9 7 -29 15
-45 8 -15 15 -33 15 -40 0 -32 125 -237 189 -310 45 -51 105 -110 151 -148 58
-47 165 -118 178 -118 5 0 15 -7 22 -15 7 -8 19 -15 27 -15 8 0 21 -7 29 -15
9 -8 24 -15 33 -15 10 0 24 -7 31 -15 7 -8 23 -15 35 -15 12 0 28 -7 35 -15 7
-8 20 -15 29 -15 10 0 26 -7 37 -15 10 -8 30 -15 44 -15 14 0 34 -6 45 -14 11
-7 35 -17 53 -21 18 -4 45 -13 60 -21 15 -8 36 -14 47 -14 12 0 25 -4 31 -10
5 -5 30 -14 54 -19 72 -16 133 -33 167 -47 17 -8 44 -14 60 -14 15 -1 39 -7
53 -15 14 -8 37 -14 51 -15 14 0 34 -7 45 -15 10 -8 33 -15 50 -15 16 0 39 -7
50 -15 10 -8 31 -15 45 -15 14 0 34 -7 45 -15 10 -8 25 -15 32 -15 20 0 187
-77 280 -129 46 -25 171 -153 191 -194 46 -97 51 -119 51 -212 0 -135 -36
-219 -139 -322 -72 -72 -175 -133 -251 -148 -19 -4 -40 -11 -46 -16 -6 -5 -66
-14 -134 -19 -139 -12 -354 1 -428 25 -23 8 -53 15 -65 15 -12 1 -33 7 -47 15
-14 8 -38 15 -55 15 -16 0 -39 7 -49 15 -11 8 -29 15 -40 15 -12 0 -30 7 -40
15 -11 8 -30 15 -42 15 -12 0 -27 7 -34 15 -7 8 -20 15 -30 15 -10 0 -23 7
-30 15 -7 8 -19 15 -27 15 -7 0 -26 8 -41 19 -15 10 -61 41 -102 67 -41 27
-79 54 -85 60 -5 6 -37 31 -70 56 -33 25 -87 73 -120 107 -33 33 -64 61 -70
61 -11 0 -598 -583 -603 -600 -5 -13 225 -239 281 -276 23 -16 55 -41 71 -56
17 -16 34 -28 39 -28 5 0 26 -13 46 -29 20 -15 46 -31 59 -35 12 -4 22 -11 22
-14 0 -4 62 -38 138 -76 75 -37 150 -74 165 -82 16 -8 36 -14 46 -14 9 0 26
-7 37 -15 10 -8 28 -15 39 -15 11 0 29 -6 40 -14 11 -7 38 -16 60 -20 22 -5
44 -11 50 -14 12 -8 95 -28 175 -43 30 -6 71 -15 90 -21 19 -7 73 -15 120 -19
47 -4 135 -12 197 -19 85 -9 136 -9 215 0 57 6 146 15 199 19 53 5 102 12 109
16 7 4 43 14 79 21 96 18 152 33 188 49 17 8 38 15 46 15 9 0 28 6 44 14 15 8
44 21 63 29 79 34 190 92 190 99 0 5 6 8 13 8 44 0 307 234 372 330 16 25 33
47 36 50 19 16 139 249 139 271 0 9 7 24 15 35 8 10 15 33 15 49 0 17 7 41 15
55 8 14 15 43 15 65 0 22 7 67 15 100 20 82 20 306 0 371 -8 27 -15 65 -15 84
-1 19 -7 46 -15 60 -8 14 -14 38 -15 53 0 16 -6 41 -13 55 -8 15 -21 43 -29
62 -72 166 -131 254 -263 385 -82 82 -141 128 -210 165 -11 6 -33 19 -50 30
-29 18 -164 86 -235 117 -19 9 -47 22 -62 30 -14 7 -34 13 -45 13 -10 0 -27 7
-37 15 -11 8 -29 15 -41 15 -12 0 -26 5 -32 11 -6 6 -29 15 -50 19 -21 5 -53
13 -70 19 -18 6 -48 16 -65 22 -18 6 -53 15 -77 20 -24 5 -49 13 -55 18 -6 5
-32 12 -58 15 -26 4 -50 11 -53 16 -3 4 -24 11 -48 15 -23 4 -47 11 -52 16 -6
4 -29 12 -50 18 -51 12 -103 30 -137 47 -14 8 -35 14 -46 14 -11 0 -25 7 -32
15 -7 8 -23 15 -35 15 -12 0 -28 7 -35 15 -7 8 -20 15 -30 15 -10 0 -23 7 -30
15 -7 8 -18 15 -26 15 -7 0 -19 6 -26 13 -7 7 -31 24 -53 37 -69 42 -148 126
-170 180 -4 8 -14 29 -23 45 -24 44 -24 250 1 288 9 14 17 31 17 37 0 24 79
113 138 157 67 49 147 92 172 93 8 0 33 7 55 15 56 20 324 20 380 0 22 -8 54
-15 70 -15 17 0 43 -7 59 -15 15 -8 36 -15 45 -15 19 0 136 -40 168 -58 12 -7
30 -12 41 -12 11 0 25 -7 32 -15 7 -8 20 -15 30 -15 9 0 37 -11 61 -25 24 -14
50 -27 57 -30 6 -3 18 -7 25 -10 6 -3 26 -14 42 -25 17 -11 41 -25 55 -32 14
-7 41 -25 61 -40 20 -15 41 -28 46 -28 4 0 31 -20 60 -45 28 -25 58 -45 65
-45 8 0 35 28 61 63 25 34 67 85 93 112 25 28 73 84 106 125 34 41 70 84 82
95 11 11 46 52 76 90 30 39 60 76 67 83 7 7 13 21 13 30 0 32 -254 256 -385
340 -98 63 -355 192 -383 192 -5 0 -23 7 -38 15 -16 8 -36 15 -45 15 -9 0 -30
7 -45 15 -16 8 -41 15 -55 15 -14 0 -34 7 -45 15 -10 8 -35 15 -54 15 -19 0
-53 7 -75 15 -22 8 -65 14 -95 15 -30 0 -84 7 -120 15 -72 16 -341 18 -425 4z"/>
<path d="M1753 4688 c-27 -60 -44 -109 -50 -140 -3 -15 -11 -33 -19 -39 -8 -6
-14 -21 -14 -33 0 -12 -7 -31 -15 -42 -8 -10 -15 -26 -15 -35 0 -15 -18 -60
-56 -146 -8 -17 -14 -35 -14 -41 0 -5 -7 -23 -15 -38 -8 -16 -15 -36 -15 -44
0 -8 -7 -24 -15 -34 -8 -11 -15 -29 -15 -40 0 -12 -7 -30 -15 -40 -8 -11 -15
-28 -15 -37 0 -10 -7 -31 -15 -48 -8 -17 -22 -45 -30 -62 -8 -17 -15 -38 -15
-48 0 -9 -7 -26 -15 -37 -8 -10 -15 -25 -15 -32 0 -8 -6 -28 -14 -45 -7 -18
-23 -59 -36 -92 -12 -33 -28 -74 -36 -92 -8 -17 -14 -37 -14 -45 0 -7 -7 -22
-15 -32 -8 -11 -15 -29 -15 -40 0 -12 -7 -30 -15 -40 -8 -11 -15 -30 -15 -42
0 -12 -7 -27 -15 -34 -8 -7 -15 -22 -15 -34 0 -12 -7 -31 -15 -42 -8 -10 -15
-26 -15 -34 0 -17 -43 -127 -54 -137 -3 -3 -6 -13 -6 -22 -1 -9 -9 -34 -20
-56 -11 -22 -19 -45 -20 -51 0 -7 -7 -25 -15 -40 -8 -16 -15 -36 -15 -44 0 -8
-7 -24 -15 -34 -8 -11 -15 -29 -15 -40 0 -12 -7 -30 -15 -40 -8 -11 -15 -30
-15 -42 0 -12 -7 -27 -15 -34 -8 -7 -15 -22 -15 -34 -1 -11 -7 -32 -15 -46 -8
-14 -14 -35 -15 -46 0 -12 -7 -27 -15 -34 -8 -7 -15 -21 -15 -31 0 -18 -11
-47 -51 -135 -11 -23 -19 -48 -19 -57 0 -8 -7 -29 -15 -46 -8 -17 -22 -45 -30
-62 -8 -17 -15 -38 -15 -47 0 -9 -7 -26 -15 -36 -8 -11 -15 -29 -15 -41 0 -12
-7 -30 -15 -41 -8 -10 -15 -28 -15 -40 0 -11 -7 -29 -15 -40 -8 -10 -15 -28
-15 -40 0 -11 -7 -29 -15 -40 -8 -10 -15 -26 -15 -34 0 -8 -7 -28 -15 -44 -8
-15 -15 -33 -15 -40 -1 -6 -9 -29 -20 -51 -11 -22 -19 -45 -20 -51 0 -7 -7
-25 -15 -40 -8 -16 -15 -36 -15 -44 0 -8 -7 -24 -15 -34 -8 -11 -15 -28 -15
-37 0 -10 -7 -31 -15 -48 -8 -17 -22 -45 -30 -62 -8 -17 -15 -38 -15 -48 0 -9
-7 -26 -15 -37 -8 -10 -15 -28 -15 -40 0 -11 -7 -29 -15 -40 -8 -10 -15 -28
-15 -40 0 -11 -7 -29 -15 -40 -8 -10 -15 -26 -15 -34 0 -8 -9 -33 -20 -55 -11
-22 -19 -45 -20 -51 0 -7 -7 -25 -15 -40 -8 -16 -15 -36 -15 -44 0 -8 -7 -24
-15 -34 -8 -11 -15 -29 -15 -40 0 -12 -7 -30 -15 -40 -8 -11 -15 -29 -15 -40
0 -12 -7 -30 -15 -40 -8 -11 -15 -29 -15 -41 0 -12 -7 -30 -15 -41 -8 -10 -15
-25 -15 -32 0 -8 -6 -28 -14 -45 -7 -18 -23 -57 -35 -87 -12 -30 -26 -64 -30
-75 -5 -11 -18 -47 -30 -80 -12 -33 -27 -68 -32 -78 -6 -11 -9 -21 -6 -23 3
-3 803 -7 935 -4 16 0 22 6 22 23 0 12 7 31 15 41 8 11 15 29 15 41 0 12 7 30
15 41 8 10 15 28 15 40 0 11 7 29 15 40 8 10 15 26 15 34 0 14 26 85 56 157 8
17 14 37 14 45 0 7 7 22 15 32 8 11 15 29 15 40 0 12 7 30 15 40 8 11 15 29
15 41 0 12 7 30 15 41 8 10 15 28 15 40 0 11 7 29 15 40 8 10 15 31 15 45 0
14 7 34 15 45 8 10 15 29 15 41 0 12 9 27 19 33 31 16 1822 14 1843 -3 9 -6
18 -23 21 -37 8 -40 41 -128 73 -193 8 -16 14 -36 14 -46 0 -9 7 -26 15 -37 8
-10 15 -26 15 -34 0 -8 7 -28 15 -44 8 -15 15 -33 15 -40 1 -6 9 -29 20 -51
11 -22 19 -45 20 -51 0 -7 7 -25 15 -40 8 -16 15 -36 15 -44 0 -8 7 -24 15
-34 8 -11 15 -28 15 -37 0 -10 7 -32 16 -51 38 -76 44 -90 44 -107 0 -9 6 -25
13 -34 11 -16 50 -18 491 -18 280 0 482 3 488 9 5 5 3 14 -7 22 -8 7 -15 18
-15 26 0 7 -6 28 -14 46 -8 18 -24 60 -36 93 -13 33 -26 68 -31 77 -5 10 -9
23 -9 31 0 7 -9 29 -20 50 -11 20 -20 45 -20 54 0 10 -7 27 -15 37 -8 11 -15
29 -15 40 0 12 -7 30 -15 40 -8 11 -15 29 -15 40 0 12 -7 30 -15 40 -8 11 -15
30 -15 42 0 12 -7 27 -15 34 -8 7 -15 21 -15 31 0 18 -18 66 -46 122 -8 16
-14 33 -14 39 0 5 -6 24 -14 41 -7 18 -23 59 -36 92 -12 33 -28 74 -36 92 -8
17 -14 37 -14 45 0 7 -7 22 -15 32 -8 11 -15 29 -15 41 0 12 -7 30 -15 41 -8
10 -15 28 -15 40 0 11 -7 29 -15 40 -8 10 -15 28 -15 40 0 11 -7 29 -15 40 -8
10 -15 28 -15 40 0 11 -7 29 -15 40 -8 10 -15 26 -15 34 0 8 -7 28 -15 44 -8
15 -15 33 -15 40 0 6 -9 28 -20 49 -11 20 -20 43 -20 51 0 7 -7 27 -15 42 -8
16 -15 36 -15 44 0 8 -7 24 -15 34 -8 11 -15 29 -15 40 0 12 -7 30 -15 40 -8
11 -15 29 -15 40 0 12 -7 30 -15 40 -8 11 -15 27 -15 35 0 9 -7 29 -15 45 -8
15 -15 36 -15 45 0 10 -7 26 -15 37 -8 10 -15 25 -15 32 0 14 -10 40 -51 130
-10 23 -19 49 -19 56 0 8 -6 27 -14 43 -34 69 -66 156 -73 195 -3 15 -11 33
-19 39 -8 6 -14 21 -14 33 0 12 -7 31 -15 42 -8 10 -15 31 -15 45 0 15 -7 32
-15 39 -8 7 -15 19 -15 26 0 14 -57 166 -86 231 -8 17 -14 37 -14 45 0 8 -7
23 -15 34 -8 10 -15 28 -15 39 0 11 -7 29 -15 39 -8 11 -15 29 -15 41 0 12 -7
30 -15 41 -8 10 -15 28 -15 40 0 11 -7 29 -15 40 -8 10 -15 28 -15 40 0 11 -7
29 -15 40 -8 10 -15 26 -15 34 0 8 -9 33 -20 55 -11 22 -20 47 -20 55 0 8 -7
24 -15 34 -8 11 -15 29 -15 40 0 12 -7 30 -15 40 -8 11 -15 29 -15 40 0 12 -7
30 -15 40 -8 11 -15 29 -15 40 0 12 -7 30 -15 40 -8 11 -15 29 -15 41 0 12 -7
30 -15 41 -8 10 -15 26 -15 34 0 8 -7 28 -15 44 -8 15 -15 37 -15 47 0 10 -4
20 -9 24 -5 3 -15 22 -21 43 -14 45 -21 63 -49 125 -11 26 -21 55 -21 65 0 9
-7 26 -15 36 -8 11 -15 29 -15 40 0 12 -7 30 -15 40 -8 11 -15 28 -15 38 0 10
-9 27 -20 38 -19 19 -33 20 -494 20 l-474 0 -19 -42z m508 -1191 c3 -21 11
-43 18 -50 6 -6 11 -20 11 -32 0 -12 7 -30 15 -41 8 -10 15 -28 15 -39 0 -11
9 -38 20 -60 11 -22 19 -47 20 -55 0 -9 4 -20 9 -25 5 -6 14 -26 19 -45 6 -19
20 -60 32 -90 12 -30 24 -66 27 -80 3 -14 12 -34 19 -45 8 -11 14 -29 14 -40
0 -11 7 -29 15 -39 8 -11 15 -29 15 -41 0 -12 7 -30 15 -41 8 -10 15 -29 15
-40 0 -12 7 -27 15 -34 8 -7 15 -22 15 -34 1 -11 9 -39 20 -61 11 -22 19 -47
20 -55 0 -9 4 -20 9 -25 5 -6 14 -26 19 -45 18 -61 35 -107 76 -203 9 -21 16
-44 16 -52 0 -7 6 -26 14 -42 31 -65 65 -152 73 -193 3 -14 13 -33 21 -43 10
-11 12 -21 6 -27 -7 -7 -226 -9 -610 -8 l-599 3 2 35 c1 20 9 49 17 65 9 17
16 37 16 45 0 8 7 24 15 34 8 11 15 29 15 41 0 12 5 26 11 32 6 6 14 26 19 44
8 33 16 55 60 169 12 30 26 69 31 87 5 18 16 45 24 60 8 15 15 35 15 43 0 8 7
24 15 34 8 11 15 29 15 40 0 12 7 30 15 40 8 11 15 29 15 40 0 12 7 30 15 40
8 11 15 29 15 40 0 12 7 30 15 40 8 11 15 31 15 45 0 14 7 35 15 45 8 11 15
29 15 41 0 12 7 30 15 41 8 10 15 28 15 40 0 11 7 29 15 40 8 10 15 26 15 34
0 8 7 28 15 44 8 15 15 33 15 40 1 6 9 29 20 51 11 22 19 45 20 51 0 7 7 25
15 40 8 16 15 38 15 49 0 11 7 29 15 39 8 11 15 28 15 39 0 29 20 58 38 55 11
-2 19 -17 23 -41z"/>
<path d="M5117 4723 c-3 -5 -5 -71 -6 -148 -3 -281 11 -4400 14 -4403 2 -3
563 -4 918 -2 4 0 7 351 7 779 0 701 2 779 16 785 9 3 165 6 348 6 376 0 342
7 396 -85 14 -24 41 -68 60 -100 19 -31 40 -64 45 -74 6 -9 20 -30 32 -47 12
-17 27 -43 33 -58 5 -14 14 -26 20 -26 5 0 10 -6 10 -13 0 -8 14 -33 30 -55
17 -23 30 -46 30 -51 0 -5 6 -16 13 -23 7 -7 27 -35 43 -61 16 -27 37 -61 46
-75 10 -15 22 -36 28 -47 13 -24 27 -46 63 -102 15 -24 27 -45 27 -48 0 -3 20
-34 45 -69 25 -36 45 -68 45 -72 0 -4 21 -39 47 -78 52 -78 67 -101 83 -131 6
-11 18 -32 28 -47 23 -36 111 -180 142 -233 48 -83 -11 -75 591 -75 297 0 539
3 539 7 0 3 -11 21 -25 39 -14 18 -25 37 -25 42 0 5 -28 52 -62 105 -108 165
-158 246 -158 256 0 5 -7 11 -15 15 -8 3 -15 12 -15 19 0 8 -13 33 -30 55 -16
23 -30 46 -30 51 0 5 -6 16 -13 23 -8 7 -25 32 -38 55 -13 22 -40 66 -59 98
-19 31 -40 64 -45 73 -6 10 -23 36 -38 59 -15 24 -27 47 -27 52 0 5 -7 11 -15
15 -8 3 -15 10 -15 16 0 6 -12 29 -27 53 -15 23 -32 49 -38 59 -56 91 -83 134
-97 157 -10 14 -22 35 -28 46 -5 11 -33 54 -60 95 -27 41 -54 85 -60 98 -5 12
-14 28 -20 35 -19 21 -80 118 -80 127 0 4 -6 13 -14 19 -8 6 -16 23 -19 37 -4
20 1 28 22 36 64 26 111 50 117 59 3 5 11 9 19 9 7 0 60 31 117 69 92 61 246
200 318 286 39 47 100 139 100 151 0 7 7 17 15 24 8 7 15 20 15 30 0 10 7 23
15 30 8 7 15 20 15 30 0 10 7 23 15 30 8 7 15 22 15 34 0 12 7 31 15 42 8 10
15 30 15 42 0 13 7 38 15 55 8 18 19 59 25 92 6 33 15 80 20 105 11 58 11 402
0 460 -5 25 -14 72 -20 105 -7 33 -18 74 -26 92 -8 17 -14 42 -14 55 0 12 -7
32 -15 42 -8 11 -15 28 -15 37 0 10 -6 30 -14 46 -40 81 -56 111 -75 143 -11
19 -25 45 -31 58 -5 12 -14 28 -20 35 -6 6 -32 41 -59 77 -90 120 -245 259
-376 337 -53 32 -222 113 -236 113 -8 0 -24 7 -35 15 -10 8 -29 15 -42 15 -13
0 -35 6 -50 14 -15 8 -50 17 -77 21 -28 4 -58 12 -67 17 -10 4 -62 13 -115 19
-54 6 -129 15 -168 19 -87 11 -2052 13 -2058 3z m1968 -832 c85 -12 173 -35
217 -57 14 -8 31 -14 38 -14 18 0 152 -90 182 -122 66 -69 148 -208 148 -250
1 -13 7 -34 15 -48 21 -37 20 -299 -1 -371 -29 -101 -86 -198 -153 -265 -35
-35 -69 -64 -76 -64 -6 0 -22 -9 -35 -20 -13 -11 -29 -20 -37 -20 -8 0 -21 -7
-29 -15 -9 -8 -26 -15 -38 -15 -13 0 -38 -8 -57 -17 -31 -16 -82 -18 -594 -20
-308 0 -572 1 -587 4 l-28 5 0 642 c0 500 3 645 13 655 9 10 106 12 477 8 256
-3 501 -10 545 -16z"/>
</g>
</svg>
