<svg width="19" height="18" viewBox="0 0 19 18" fill="none" xmlns="http://www.w3.org/2000/svg">
<path d="M17.3961 3.29577H1.6039C0.715584 3.29577 0 2.56056 0 1.64789C0 0.735211 0.715584 0 1.6039 0H17.3961C18.2844 0 19 0.735211 19 1.64789C19 2.56056 18.2844 3.29577 17.3961 3.29577ZM19 9C19 8.08732 18.2844 7.35211 17.3961 7.35211H1.6039C0.715584 7.35211 0 8.08732 0 9C0 9.91268 0.715584 10.6479 1.6039 10.6479H17.3961C18.2844 10.6479 19 9.91268 19 9ZM19 16.3521C19 15.4394 18.2844 14.7042 17.3961 14.7042H1.6039C0.715584 14.7042 0 15.4394 0 16.3521C0 17.2648 0.715584 18 1.6039 18H17.3961C18.2844 18 19 17.2648 19 16.3521Z" fill="#0B4421"/>
</svg>
