<svg width="21" height="21" viewBox="0 0 21 21" fill="none" xmlns="http://www.w3.org/2000/svg">
<path d="M10.2062 7.62939e-06C7.50028 0.00303319 4.90605 1.0793 2.99267 2.99268C1.07929 4.90606 0.00302556 7.50029 0 10.2062C0.00453376 12.9117 1.08128 15.505 2.99434 17.4181C4.90739 19.3311 7.50075 20.4079 10.2062 20.4124C12.9131 20.4124 15.5091 19.3371 17.4231 17.4231C19.3371 15.5091 20.4124 12.9131 20.4124 10.2062C20.4124 7.49936 19.3371 4.90337 17.4231 2.98934C15.5091 1.0753 12.9131 7.62939e-06 10.2062 7.62939e-06ZM16.414 16.0956C15.8408 14.9395 14.9559 13.9665 13.8592 13.2865C12.7624 12.6065 11.4975 12.2465 10.207 12.2472C8.91659 12.2479 7.65202 12.6092 6.55598 13.2903C5.45995 13.9715 4.57608 14.9454 4.0041 16.1021C2.478 14.5194 1.62764 12.4049 1.63299 10.2062C1.63299 7.93246 2.53624 5.75183 4.14403 4.14404C5.75182 2.53625 7.93245 1.633 10.2062 1.633C12.48 1.633 14.6606 2.53625 16.2684 4.14404C17.8762 5.75183 18.7794 7.93246 18.7794 10.2062C18.7845 12.4018 17.9364 14.5135 16.414 16.0956ZM10.2062 4.08249C9.47951 4.08249 8.76914 4.29798 8.16491 4.70171C7.56069 5.10544 7.08975 5.67928 6.81166 6.35066C6.53356 7.02204 6.4608 7.7608 6.60257 8.47353C6.74434 9.18626 7.09428 9.84095 7.60813 10.3548C8.12198 10.8687 8.77667 11.2186 9.4894 11.3604C10.2021 11.5021 10.9409 11.4294 11.6123 11.1513C12.2837 10.8732 12.8575 10.4022 13.2612 9.79802C13.665 9.1938 13.8804 8.48342 13.8804 7.75673C13.8804 7.27422 13.7854 6.79644 13.6008 6.35066C13.4161 5.90488 13.1455 5.49983 12.8043 5.15865C12.4631 4.81747 12.0581 4.54682 11.6123 4.36217C11.1665 4.17753 10.6887 4.08249 10.2062 4.08249Z" fill="#0B4421"/>
</svg>
